<?xml version="1.0" encoding="UTF-8"?>
<!DOCTYPE svg PUBLIC "-//W3C//DTD SVG 1.1//EN" "http://www.w3.org/Graphics/SVG/1.1/DTD/svg11.dtd">
<svg xmlns="http://www.w3.org/2000/svg" version="1.1" width="887px" height="797px" style="shape-rendering:geometricPrecision; text-rendering:geometricPrecision; image-rendering:optimizeQuality; fill-rule:evenodd; clip-rule:evenodd" xmlns:xlink="http://www.w3.org/1999/xlink">
<g><path style="opacity:0.996" fill="#94c01f" d="M 190.5,48.5 C 361.167,48.3333 531.834,48.5 702.5,49C 752.5,57.3329 785.667,85.4995 802,133.5C 803.872,140.396 805.205,147.396 806,154.5C 806.667,323.833 806.667,493.167 806,662.5C 798.079,714.758 768.912,748.925 718.5,765C 713.239,766.385 707.906,767.385 702.5,768C 531.5,768.667 360.5,768.667 189.5,768C 137.044,758.877 103.544,728.71 89,677.5C 87.4574,670.578 86.4574,663.578 86,656.5C 85.0135,487.815 85.3468,319.149 87,150.5C 98.5768,93.0889 133.077,59.0889 190.5,48.5 Z"/></g>
<g><path style="opacity:1" fill="#e32877" d="M 534.5,108.5 C 491.833,109.833 449.167,109.833 406.5,108.5C 426.355,71.4504 452.688,65.9504 485.5,92C 495.944,90.8174 506.278,91.4841 516.5,94C 524.296,96.7157 530.296,101.549 534.5,108.5 Z"/></g>
<g><path style="opacity:1" fill="#e0317b" d="M 406.5,108.5 C 449.167,109.833 491.833,109.833 534.5,108.5C 536.957,111.751 538.624,115.418 539.5,119.5C 510.341,120.833 480.841,121.5 451,121.5C 421.331,121.5 391.831,121.167 362.5,120.5C 367.774,117.344 373.441,114.844 379.5,113C 388.474,111.105 397.474,109.605 406.5,108.5 Z"/></g>
<g><path style="opacity:1" fill="#de3a7f" d="M 539.5,119.5 C 540.761,122.258 541.594,125.258 542,128.5C 547.985,132.656 553.485,137.323 558.5,142.5C 486.669,143.499 414.669,143.833 342.5,143.5C 346.304,133.362 352.971,125.695 362.5,120.5C 391.831,121.167 421.331,121.5 451,121.5C 480.841,121.5 510.341,120.833 539.5,119.5 Z"/></g>
<g><path style="opacity:1" fill="#dc4182" d="M 558.5,142.5 C 562.899,146.568 566.565,151.235 569.5,156.5C 492.841,158.497 415.841,159.164 338.5,158.5C 338.5,157.5 338.5,156.5 338.5,155.5C 338.861,151.085 340.194,147.085 342.5,143.5C 414.669,143.833 486.669,143.499 558.5,142.5 Z"/></g>
<g><path style="opacity:1" fill="#d94887" d="M 338.5,155.5 C 338.5,156.5 338.5,157.5 338.5,158.5C 415.841,159.164 492.841,158.497 569.5,156.5C 572.873,161.6 574.873,167.267 575.5,173.5C 575.5,175.5 575.5,177.5 575.5,179.5C 495.833,179.5 416.167,179.5 336.5,179.5C 336.334,173.158 336.5,166.825 337,160.5C 337.198,158.618 337.698,156.952 338.5,155.5 Z"/></g>
<g><path style="opacity:1" fill="#d64e8b" d="M 575.5,173.5 C 577.013,181.65 576.346,189.65 573.5,197.5C 495.167,197.5 416.833,197.5 338.5,197.5C 337.469,191.558 336.803,185.558 336.5,179.5C 416.167,179.5 495.833,179.5 575.5,179.5C 575.5,177.5 575.5,175.5 575.5,173.5 Z"/></g>
<g><path style="opacity:1" fill="#d25993" d="M 246.5,198.5 C 246.5,275.5 246.5,352.5 246.5,429.5C 245.167,429.5 243.833,429.5 242.5,429.5C 238.833,429.5 235.167,429.5 231.5,429.5C 231.5,352.833 231.5,276.167 231.5,199.5C 236.305,198.513 241.305,198.179 246.5,198.5 Z"/></g>
<g><path style="opacity:1" fill="#d45490" d="M 246.5,198.5 C 252.489,198.367 258.156,199.367 263.5,201.5C 262.501,276.331 262.167,351.331 262.5,426.5C 257.244,427.87 251.911,428.87 246.5,429.5C 246.5,352.5 246.5,275.5 246.5,198.5 Z"/></g>
<g><path style="opacity:1" fill="#d74c8a" d="M 263.5,201.5 C 276.013,203.924 287.013,209.258 296.5,217.5C 296.5,254.167 296.5,290.833 296.5,327.5C 289.295,325.372 281.962,324.205 274.5,324C 293.737,332.109 310.737,343.442 325.5,358C 316.497,355.964 307.331,354.464 298,353.5C 290.966,353.649 284.132,354.816 277.5,357C 284.719,358.094 291.719,359.594 298.5,361.5C 296.515,377.8 295.848,394.466 296.5,411.5C 286.237,418.625 274.904,423.625 262.5,426.5C 262.167,351.331 262.501,276.331 263.5,201.5 Z"/></g>
<g><path style="opacity:1" fill="#d45490" d="M 338.5,197.5 C 416.833,197.5 495.167,197.5 573.5,197.5C 572.262,202.895 570.262,207.895 567.5,212.5C 492.167,212.5 416.833,212.5 341.5,212.5C 339.964,207.621 338.964,202.621 338.5,197.5 Z"/></g>
<g><path style="opacity:1" fill="#ce6099" d="M 231.5,199.5 C 231.5,276.167 231.5,352.833 231.5,429.5C 235.167,429.5 238.833,429.5 242.5,429.5C 230.059,431.089 217.725,430.423 205.5,427.5C 205.5,354.5 205.5,281.5 205.5,208.5C 213.397,203.533 222.064,200.533 231.5,199.5 Z"/></g>
<g><path style="opacity:1" fill="#ca679f" d="M 205.5,208.5 C 205.5,281.5 205.5,354.5 205.5,427.5C 197.068,426.77 189.068,424.77 181.5,421.5C 181.5,355.5 181.5,289.5 181.5,223.5C 188.968,217.709 196.968,212.709 205.5,208.5 Z"/></g>
<g><path style="opacity:1" fill="#d25a93" d="M 617.5,210.5 C 615.507,290.287 614.841,370.287 615.5,450.5C 610.5,450.5 605.5,450.5 600.5,450.5C 598.508,373.046 597.841,295.38 598.5,217.5C 604.142,213.396 610.475,211.063 617.5,210.5 Z"/></g>
<g><path style="opacity:1" fill="#d45490" d="M 617.5,210.5 C 623.489,210.367 629.156,211.367 634.5,213.5C 633.501,291.998 633.167,370.665 633.5,449.5C 627.536,450.307 621.536,450.64 615.5,450.5C 614.841,370.287 615.507,290.287 617.5,210.5 Z"/></g>
<g><path style="opacity:1" fill="#d25a93" d="M 341.5,212.5 C 416.833,212.5 492.167,212.5 567.5,212.5C 565.578,218.016 562.912,223.016 559.5,227.5C 488.5,227.5 417.5,227.5 346.5,227.5C 344.262,222.785 342.595,217.785 341.5,212.5 Z"/></g>
<g><path style="opacity:1" fill="#d64e8b" d="M 634.5,213.5 C 642.096,215.628 648.762,219.295 654.5,224.5C 654.5,298.833 654.5,373.167 654.5,447.5C 655.833,447.5 657.167,447.5 658.5,447.5C 650.377,448.962 642.044,449.629 633.5,449.5C 633.167,370.665 633.501,291.998 634.5,213.5 Z"/></g>
<g><path style="opacity:1" fill="#dc3f81" d="M 681.5,218.5 C 689.923,217.773 697.923,219.273 705.5,223C 707.618,224.049 709.284,225.549 710.5,227.5C 709.501,297.998 709.167,368.665 709.5,439.5C 699.509,442.6 689.176,444.6 678.5,445.5C 678.5,370.167 678.5,294.833 678.5,219.5C 679.791,219.737 680.791,219.404 681.5,218.5 Z"/></g>
<g><path style="opacity:1" fill="#d94887" d="M 681.5,218.5 C 680.791,219.404 679.791,219.737 678.5,219.5C 678.5,294.833 678.5,370.167 678.5,445.5C 671.883,446.465 665.216,447.132 658.5,447.5C 657.167,447.5 655.833,447.5 654.5,447.5C 654.5,373.167 654.5,298.833 654.5,224.5C 658.285,224.986 661.952,224.152 665.5,222C 670.692,220.202 676.025,219.035 681.5,218.5 Z"/></g>
<g><path style="opacity:1" fill="#c66ea5" d="M 181.5,223.5 C 181.5,289.5 181.5,355.5 181.5,421.5C 170.882,418.531 162.549,412.531 156.5,403.5C 156.5,344.833 156.5,286.167 156.5,227.5C 159.503,225.738 162.837,224.572 166.5,224C 171.489,223.501 176.489,223.334 181.5,223.5 Z"/></g>
<g><path style="opacity:1" fill="#cf5e97" d="M 598.5,217.5 C 597.841,295.38 598.508,373.046 600.5,450.5C 594.072,450.291 587.739,449.624 581.5,448.5C 581.5,377.5 581.5,306.5 581.5,235.5C 585.787,228.213 591.454,222.213 598.5,217.5 Z"/></g>
<g><path style="opacity:1" fill="#c274aa" d="M 156.5,227.5 C 156.5,286.167 156.5,344.833 156.5,403.5C 154.292,402.106 152.792,400.106 152,397.5C 147.685,385.497 146.351,373.164 148,360.5C 135.923,352.011 126.923,341.011 121,327.5C 118.541,319.22 119.207,311.22 123,303.5C 127.007,296.989 131.84,291.156 137.5,286C 133.841,272.516 133.674,259.016 137,245.5C 140.518,236.175 147.018,230.175 156.5,227.5 Z"/></g>
<g><path style="opacity:1" fill="#cf5f98" d="M 346.5,227.5 C 417.5,227.5 488.5,227.5 559.5,227.5C 555.067,236.708 549.4,245.041 542.5,252.5C 499.167,252.5 455.833,252.5 412.5,252.5C 412.835,245.487 413.002,238.487 413,231.5C 405.671,243.821 401.338,257.154 400,271.5C 394.825,259.637 391.159,247.304 389,234.5C 386.802,240.322 385.302,246.322 384.5,252.5C 375.833,252.5 367.167,252.5 358.5,252.5C 353.717,244.598 349.717,236.265 346.5,227.5 Z"/></g>
<g><path style="opacity:1" fill="#df357d" d="M 710.5,227.5 C 715.3,232.409 719.133,238.075 722,244.5C 723.84,250.535 725.674,256.535 727.5,262.5C 726.167,290.492 725.5,318.825 725.5,347.5C 725.5,376.002 725.833,404.335 726.5,432.5C 721.313,435.79 715.647,438.123 709.5,439.5C 709.167,368.665 709.501,297.998 710.5,227.5 Z"/></g>
<g><path style="opacity:1" fill="#dc4081" d="M 296.5,217.5 C 300.202,219.024 303.536,221.19 306.5,224C 314.697,231.366 322.697,238.866 330.5,246.5C 329.502,271.661 329.169,296.995 329.5,322.5C 320.851,317.832 311.851,314.332 302.5,312C 316.958,321.625 329.291,333.458 339.5,347.5C 339.672,348.492 339.338,349.158 338.5,349.5C 325.636,340.067 311.636,332.734 296.5,327.5C 296.5,290.833 296.5,254.167 296.5,217.5 Z"/></g>
<g><path style="opacity:1" fill="#cc639b" d="M 581.5,235.5 C 581.5,306.5 581.5,377.5 581.5,448.5C 577.239,448.102 573.239,447.102 569.5,445.5C 569.177,422.092 569.511,398.758 570.5,375.5C 571.239,375.631 571.906,375.464 572.5,375C 557.631,369.716 542.631,369.216 527.5,373.5C 526.833,370.167 526.167,366.833 525.5,363.5C 540.021,353.401 555.355,344.568 571.5,337C 570.906,336.536 570.239,336.369 569.5,336.5C 569.5,307.167 569.5,277.833 569.5,248.5C 573.528,244.141 577.528,239.807 581.5,235.5 Z"/></g>
<g><path style="opacity:1" fill="#ca689f" d="M 569.5,248.5 C 569.5,277.833 569.5,307.167 569.5,336.5C 562.014,337.297 554.681,338.797 547.5,341C 538.694,344.571 530.028,348.404 521.5,352.5C 519.929,350.365 518.596,348.032 517.5,345.5C 528.581,335.455 540.581,326.622 553.5,319C 549.391,319.086 545.391,319.92 541.5,321.5C 541.5,305.833 541.5,290.167 541.5,274.5C 551.16,266.173 560.494,257.506 569.5,248.5 Z"/></g>
<g><path style="opacity:1" fill="#ca699e" d="M 358.5,252.5 C 367.167,252.5 375.833,252.5 384.5,252.5C 384.334,258.176 384.501,263.843 385,269.5C 386.094,276.305 387.428,282.972 389,289.5C 377.111,278.457 366.944,266.124 358.5,252.5 Z"/></g>
<g><path style="opacity:1" fill="#ca679f" d="M 412.5,252.5 C 455.833,252.5 499.167,252.5 542.5,252.5C 533.557,263.117 522.891,271.451 510.5,277.5C 485.833,277.5 461.167,277.5 436.5,277.5C 436.584,273.245 437.251,269.078 438.5,265C 438.389,263.278 437.889,263.112 437,264.5C 430.012,273.809 425.179,284.143 422.5,295.5C 420.5,295.5 418.5,295.5 416.5,295.5C 416.737,294.209 416.404,293.209 415.5,292.5C 413.051,279.287 412.051,265.953 412.5,252.5 Z"/></g>
<g><path style="opacity:1" fill="#e0327a" d="M 330.5,246.5 C 349.127,265.081 363.794,286.414 374.5,310.5C 371.206,313.156 367.873,315.822 364.5,318.5C 363.833,318.833 363.167,319.167 362.5,319.5C 349.741,310.537 348.408,311.871 358.5,323.5C 355.138,327.192 351.805,330.859 348.5,334.5C 342.335,330.25 336.002,326.25 329.5,322.5C 329.169,296.995 329.502,271.661 330.5,246.5 Z"/></g>
<g><path style="opacity:1" fill="#96be2e" d="M 436.5,277.5 C 435.013,283.383 434.013,289.383 433.5,295.5C 429.833,295.5 426.167,295.5 422.5,295.5C 425.179,284.143 430.012,273.809 437,264.5C 437.889,263.112 438.389,263.278 438.5,265C 437.251,269.078 436.584,273.245 436.5,277.5 Z"/></g>
<g><path style="opacity:1" fill="#e22b79" d="M 727.5,262.5 C 732.014,263.421 736.348,264.921 740.5,267C 742.584,267.697 744.251,268.864 745.5,270.5C 745.168,320.003 745.501,369.336 746.5,418.5C 740.891,424.641 734.225,429.308 726.5,432.5C 725.833,404.335 725.5,376.002 725.5,347.5C 725.5,318.825 726.167,290.492 727.5,262.5 Z"/></g>
<g><path style="opacity:1" fill="#e32375" d="M 745.5,270.5 C 762.905,278.582 771.905,292.248 772.5,311.5C 771.746,327.511 767.413,342.511 759.5,356.5C 763.767,375.311 761.6,393.311 753,410.5C 750.969,413.355 748.803,416.022 746.5,418.5C 745.501,369.336 745.168,320.003 745.5,270.5 Z"/></g>
<g><path style="opacity:1" fill="#c56fa5" d="M 541.5,274.5 C 541.5,290.167 541.5,305.833 541.5,321.5C 531.583,325.793 522.249,331.126 513.5,337.5C 510.8,335.766 508.8,333.432 507.5,330.5C 508.684,328.537 509.517,326.537 510,324.5C 508.729,325.883 507.229,326.883 505.5,327.5C 501.474,323.805 497.474,320.138 493.5,316.5C 507.325,300.007 523.325,286.007 541.5,274.5 Z"/></g>
<g><path style="opacity:1" fill="#c56fa5" d="M 436.5,277.5 C 461.167,277.5 485.833,277.5 510.5,277.5C 500.134,286.866 490.467,296.866 481.5,307.5C 478.07,306.286 474.736,304.786 471.5,303C 470.748,302.329 470.414,301.496 470.5,300.5C 471.442,296.324 472.609,292.324 474,288.5C 470.951,292.043 468.118,295.709 465.5,299.5C 464.85,299.804 464.183,300.137 463.5,300.5C 458.732,299.366 454.399,297.699 450.5,295.5C 451.339,292.165 451.839,288.832 452,285.5C 449.822,289.194 447.655,292.861 445.5,296.5C 441.548,295.728 437.548,295.395 433.5,295.5C 434.013,289.383 435.013,283.383 436.5,277.5 Z"/></g>
<g><path style="opacity:1" fill="#9bba3e" d="M 450.5,295.5 C 448.958,296.301 447.292,296.634 445.5,296.5C 447.655,292.861 449.822,289.194 452,285.5C 451.839,288.832 451.339,292.165 450.5,295.5 Z"/></g>
<g><path style="opacity:1" fill="#98bd36" d="M 470.5,300.5 C 469.778,300.918 469.278,301.584 469,302.5C 467.271,302.026 466.105,301.026 465.5,299.5C 468.118,295.709 470.951,292.043 474,288.5C 472.609,292.324 471.442,296.324 470.5,300.5 Z"/></g>
<g><path style="opacity:1" fill="#47accb" d="M 416.5,295.5 C 418.5,295.5 420.5,295.5 422.5,295.5C 426.167,295.5 429.833,295.5 433.5,295.5C 437.548,295.395 441.548,295.728 445.5,296.5C 447.292,296.634 448.958,296.301 450.5,295.5C 454.399,297.699 458.732,299.366 463.5,300.5C 464.183,300.137 464.85,299.804 465.5,299.5C 466.105,301.026 467.271,302.026 469,302.5C 469.278,301.584 469.778,300.918 470.5,300.5C 470.414,301.496 470.748,302.329 471.5,303C 474.736,304.786 478.07,306.286 481.5,307.5C 483.833,309.5 486.167,311.5 488.5,313.5C 487.833,322.167 487.167,330.833 486.5,339.5C 467.86,320.617 445.193,312.617 418.5,315.5C 419.066,308.549 418.399,301.882 416.5,295.5 Z"/></g>
<g><path style="opacity:1" fill="#2a90a9" d="M 415.5,292.5 C 416.404,293.209 416.737,294.209 416.5,295.5C 418.399,301.882 419.066,308.549 418.5,315.5C 396.43,319.867 378.43,330.867 364.5,348.5C 364.5,338.5 364.5,328.5 364.5,318.5C 367.873,315.822 371.206,313.156 374.5,310.5C 386.64,302.618 399.973,297.784 414.5,296C 415.337,294.989 415.67,293.822 415.5,292.5 Z"/></g>
<g><path style="opacity:1" fill="#96bf27" d="M 329.5,322.5 C 336.002,326.25 342.335,330.25 348.5,334.5C 345.734,339.045 342.734,343.378 339.5,347.5C 329.291,333.458 316.958,321.625 302.5,312C 311.851,314.332 320.851,317.832 329.5,322.5 Z"/></g>
<g><path style="opacity:1" fill="#9cbb32" d="M 362.5,319.5 C 361.5,321.167 360.167,322.5 358.5,323.5C 348.408,311.871 349.741,310.537 362.5,319.5 Z"/></g>
<g><path style="opacity:1" fill="#96be2c" d="M 517.5,345.5 C 515.638,343.109 514.304,340.442 513.5,337.5C 522.249,331.126 531.583,325.793 541.5,321.5C 545.391,319.92 549.391,319.086 553.5,319C 540.581,326.622 528.581,335.455 517.5,345.5 Z"/></g>
<g><path style="opacity:1" fill="#97be28" d="M 296.5,327.5 C 311.636,332.734 325.636,340.067 338.5,349.5C 335.411,356.446 332.745,363.446 330.5,370.5C 320.076,366.693 309.409,363.693 298.5,361.5C 291.719,359.594 284.719,358.094 277.5,357C 284.132,354.816 290.966,353.649 298,353.5C 307.331,354.464 316.497,355.964 325.5,358C 310.737,343.442 293.737,332.109 274.5,324C 281.962,324.205 289.295,325.372 296.5,327.5 Z"/></g>
<g><path style="opacity:1" fill="#9aba4a" d="M 507.5,330.5 C 506.094,330.027 505.427,329.027 505.5,327.5C 507.229,326.883 508.729,325.883 510,324.5C 509.517,326.537 508.684,328.537 507.5,330.5 Z"/></g>
<g><path style="opacity:1" fill="#eeefef" d="M 418.5,315.5 C 445.193,312.617 467.86,320.617 486.5,339.5C 511.47,367.356 516.636,398.689 502,433.5C 496.94,442.95 490.44,451.284 482.5,458.5C 462.023,474.926 438.69,480.926 412.5,476.5C 403.121,473.817 394.121,469.984 385.5,465C 378.035,459.369 371.035,453.202 364.5,446.5C 348.084,424.114 343.584,399.447 351,372.5C 354.232,363.695 358.732,355.695 364.5,348.5C 378.43,330.867 396.43,319.867 418.5,315.5 Z"/></g>
<g><path style="opacity:1" fill="#96bf2a" d="M 569.5,336.5 C 570.239,336.369 570.906,336.536 571.5,337C 555.355,344.568 540.021,353.401 525.5,363.5C 523.796,360.061 522.462,356.395 521.5,352.5C 530.028,348.404 538.694,344.571 547.5,341C 554.681,338.797 562.014,337.297 569.5,336.5 Z"/></g>
<g><path style="opacity:1" fill="#42abca" d="M 430.5,334.5 C 430.5,342.5 430.5,350.5 430.5,358.5C 429.778,358.082 429.278,357.416 429,356.5C 424.939,365.85 421.772,375.517 419.5,385.5C 412.833,385.5 406.167,385.5 399.5,385.5C 399.5,371.167 399.5,356.833 399.5,342.5C 408.958,336.885 419.291,334.218 430.5,334.5 Z"/></g>
<g><path style="opacity:1" fill="#5ebedf" d="M 488.5,313.5 C 490.411,314.075 492.078,315.075 493.5,316.5C 497.474,320.138 501.474,323.805 505.5,327.5C 505.427,329.027 506.094,330.027 507.5,330.5C 508.8,333.432 510.8,335.766 513.5,337.5C 514.304,340.442 515.638,343.109 517.5,345.5C 518.596,348.032 519.929,350.365 521.5,352.5C 522.462,356.395 523.796,360.061 525.5,363.5C 526.167,366.833 526.833,370.167 527.5,373.5C 528.675,377.042 529.341,380.709 529.5,384.5C 529.5,388.833 529.5,393.167 529.5,397.5C 529.5,400.5 529.5,403.5 529.5,406.5C 528.553,415.232 527.22,423.899 525.5,432.5C 523.614,436.624 521.614,440.791 519.5,445C 520.416,445.278 521.082,445.778 521.5,446.5C 520.325,446.281 519.325,446.614 518.5,447.5C 515.871,452.779 512.871,457.779 509.5,462.5C 508.662,462.842 508.328,463.508 508.5,464.5C 505.548,466.785 502.882,469.452 500.5,472.5C 496.854,474.817 493.52,477.484 490.5,480.5C 488.147,481.34 486.147,482.674 484.5,484.5C 484.167,484.5 483.833,484.5 483.5,484.5C 483.826,475.651 483.493,466.984 482.5,458.5C 490.44,451.284 496.94,442.95 502,433.5C 516.636,398.689 511.47,367.356 486.5,339.5C 487.167,330.833 487.833,322.167 488.5,313.5 Z"/></g>
<g><path style="opacity:1" fill="#1e839a" d="M 364.5,318.5 C 364.5,328.5 364.5,338.5 364.5,348.5C 358.732,355.695 354.232,363.695 351,372.5C 343.584,399.447 348.084,424.114 364.5,446.5C 364.5,456.167 364.5,465.833 364.5,475.5C 360.878,473.213 357.545,470.547 354.5,467.5C 353.167,465.5 351.5,463.833 349.5,462.5C 348.219,459.553 346.219,457.219 343.5,455.5C 343.002,452.674 341.669,450.34 339.5,448.5C 337.831,444.496 336.164,440.496 334.5,436.5C 334.34,434.847 333.674,433.514 332.5,432.5C 332.3,429.37 331.634,426.37 330.5,423.5C 330.435,420.572 329.768,417.905 328.5,415.5C 328.084,410.507 327.751,405.507 327.5,400.5C 327.188,390.355 328.188,380.355 330.5,370.5C 332.745,363.446 335.411,356.446 338.5,349.5C 339.338,349.158 339.672,348.492 339.5,347.5C 342.734,343.378 345.734,339.045 348.5,334.5C 351.805,330.859 355.138,327.192 358.5,323.5C 360.167,322.5 361.5,321.167 362.5,319.5C 363.167,319.167 363.833,318.833 364.5,318.5 Z"/></g>
<g><path style="opacity:1" fill="#268ea8" d="M 430.5,334.5 C 446.076,334.855 459.743,340.022 471.5,350C 473.141,351.129 474.141,352.629 474.5,354.5C 474.169,383.005 474.502,411.338 475.5,439.5C 468.023,447.91 458.689,453.244 447.5,455.5C 447.174,446.983 447.507,438.65 448.5,430.5C 450.229,431.117 451.729,432.117 453,433.5C 453.167,432.833 453.333,432.167 453.5,431.5C 450.324,422.147 447.49,412.814 445,403.5C 453.431,398.035 461.597,392.201 469.5,386C 459.167,385.667 448.833,385.333 438.5,385C 435.329,376.319 432.662,367.486 430.5,358.5C 430.5,350.5 430.5,342.5 430.5,334.5 Z"/></g>
<g><path style="opacity:1" fill="#51b5d5" d="M 399.5,342.5 C 399.5,356.833 399.5,371.167 399.5,385.5C 395.818,385.335 392.152,385.501 388.5,386C 396.244,391.955 404.077,397.788 412,403.5C 409.704,413.232 406.87,422.899 403.5,432.5C 404.002,433.521 404.668,433.688 405.5,433C 407.864,431.158 410.197,429.325 412.5,427.5C 412.5,437.167 412.5,446.833 412.5,456.5C 402.613,453.893 393.947,449.227 386.5,442.5C 386.5,412.167 386.5,381.833 386.5,351.5C 390.001,347.338 394.335,344.338 399.5,342.5 Z"/></g>
<g><path style="opacity:1" fill="#5dbfe0" d="M 386.5,351.5 C 386.5,381.833 386.5,412.167 386.5,442.5C 373.277,430.362 366.944,415.195 367.5,397C 366.848,378.817 373.181,363.65 386.5,351.5 Z"/></g>
<g><path style="opacity:1" fill="#fafcfd" d="M 430.5,358.5 C 432.662,367.486 435.329,376.319 438.5,385C 448.833,385.333 459.167,385.667 469.5,386C 461.597,392.201 453.431,398.035 445,403.5C 447.49,412.814 450.324,422.147 453.5,431.5C 453.333,432.167 453.167,432.833 453,433.5C 451.729,432.117 450.229,431.117 448.5,430.5C 441.901,425.521 435.235,420.521 428.5,415.5C 423.137,419.509 417.804,423.509 412.5,427.5C 410.197,429.325 407.864,431.158 405.5,433C 404.668,433.688 404.002,433.521 403.5,432.5C 406.87,422.899 409.704,413.232 412,403.5C 404.077,397.788 396.244,391.955 388.5,386C 392.152,385.501 395.818,385.335 399.5,385.5C 406.167,385.5 412.833,385.5 419.5,385.5C 421.772,375.517 424.939,365.85 429,356.5C 429.278,357.416 429.778,358.082 430.5,358.5 Z"/></g>
<g><path style="opacity:1" fill="#1f849c" d="M 474.5,354.5 C 485.482,365.65 490.815,379.15 490.5,395C 491.281,411.905 486.281,426.738 475.5,439.5C 474.502,411.338 474.169,383.005 474.5,354.5 Z"/></g>
<g><path style="opacity:1" fill="#dc4081" d="M 298.5,361.5 C 309.409,363.693 320.076,366.693 330.5,370.5C 328.188,380.355 327.188,390.355 327.5,400.5C 316.866,403.317 306.532,406.984 296.5,411.5C 295.848,394.466 296.515,377.8 298.5,361.5 Z"/></g>
<g><path style="opacity:1" fill="#96bf28" d="M 570.5,375.5 C 556.586,377.395 542.919,380.395 529.5,384.5C 529.341,380.709 528.675,377.042 527.5,373.5C 542.631,369.216 557.631,369.716 572.5,375C 571.906,375.464 571.239,375.631 570.5,375.5 Z"/></g>
<g><path style="opacity:1" fill="#c96a9f" d="M 570.5,375.5 C 569.511,398.758 569.177,422.092 569.5,445.5C 555.081,440.361 540.414,436.027 525.5,432.5C 527.22,423.899 528.553,415.232 529.5,406.5C 540.214,405.149 550.88,403.649 561.5,402C 551.174,398.224 540.508,396.724 529.5,397.5C 529.5,393.167 529.5,388.833 529.5,384.5C 542.919,380.395 556.586,377.395 570.5,375.5 Z"/></g>
<g><path style="opacity:1" fill="#95bf28" d="M 529.5,397.5 C 540.508,396.724 551.174,398.224 561.5,402C 550.88,403.649 540.214,405.149 529.5,406.5C 529.5,403.5 529.5,400.5 529.5,397.5 Z"/></g>
<g><path style="opacity:1" fill="#98bc31" d="M 330.5,423.5 C 331.634,426.37 332.3,429.37 332.5,432.5C 326.033,434.952 319.366,436.119 312.5,436C 319.402,433.056 325.402,428.889 330.5,423.5 Z"/></g>
<g><path style="opacity:1" fill="#339ebb" d="M 448.5,430.5 C 447.507,438.65 447.174,446.983 447.5,455.5C 435.967,459.108 424.3,459.441 412.5,456.5C 412.5,446.833 412.5,437.167 412.5,427.5C 417.804,423.509 423.137,419.509 428.5,415.5C 435.235,420.521 441.901,425.521 448.5,430.5 Z"/></g>
<g><path style="opacity:1" fill="#97be29" d="M 334.5,436.5 C 336.164,440.496 337.831,444.496 339.5,448.5C 329.277,453.945 318.61,458.279 307.5,461.5C 301.026,463.895 294.359,465.062 287.5,465C 304.859,458.001 320.526,448.501 334.5,436.5 Z"/></g>
<g><path style="opacity:1" fill="#d25993" d="M 279.5,439.5 C 279.167,517.335 279.501,595.002 280.5,672.5C 274.772,677.303 268.105,679.97 260.5,680.5C 258.503,602.507 257.836,524.174 258.5,445.5C 265.545,443.655 272.545,441.655 279.5,439.5 Z"/></g>
<g><path style="opacity:1" fill="#ce6099" d="M 258.5,445.5 C 257.836,524.174 258.503,602.507 260.5,680.5C 250.888,682.518 241.888,680.851 233.5,675.5C 232.167,600.833 232.167,526.167 233.5,451.5C 241.622,448.72 249.955,446.72 258.5,445.5 Z"/></g>
<g><path style="opacity:1" fill="#ca679f" d="M 233.5,451.5 C 232.167,526.167 232.167,600.833 233.5,675.5C 223.982,670.316 215.649,663.649 208.5,655.5C 207.504,590.905 207.17,526.238 207.5,461.5C 215.938,457.576 224.604,454.243 233.5,451.5 Z"/></g>
<g><path style="opacity:1" fill="#cf5f98" d="M 521.5,446.5 C 531.31,448.75 540.644,452.083 549.5,456.5C 548.501,540.998 548.167,625.665 548.5,710.5C 537.255,708.874 527.255,704.54 518.5,697.5C 518.5,631.5 518.5,565.5 518.5,499.5C 527.387,505.206 535.887,511.539 544,518.5C 544.667,517.833 544.667,517.167 544,516.5C 531.304,499.971 516.804,485.304 500.5,472.5C 502.882,469.452 505.548,466.785 508.5,464.5C 514.769,467.194 515.102,466.527 509.5,462.5C 512.871,457.779 515.871,452.779 518.5,447.5C 519.325,446.614 520.325,446.281 521.5,446.5 Z"/></g>
<g><path style="opacity:1" fill="#98bd2b" d="M 343.5,455.5 C 346.219,457.219 348.219,459.553 349.5,462.5C 341.827,469.163 333.16,474.163 323.5,477.5C 321.164,478.343 318.831,478.843 316.5,479C 326.31,472.019 335.31,464.185 343.5,455.5 Z"/></g>
<g><path style="opacity:1" fill="#d25a93" d="M 549.5,456.5 C 554.559,457.681 559.559,459.014 564.5,460.5C 564.5,543.833 564.5,627.167 564.5,710.5C 559.015,711.636 553.681,711.636 548.5,710.5C 548.167,625.665 548.501,540.998 549.5,456.5 Z"/></g>
<g><path style="opacity:1" fill="#d94987" d="M 339.5,448.5 C 341.669,450.34 343.002,452.674 343.5,455.5C 335.31,464.185 326.31,472.019 316.5,479C 318.831,478.843 321.164,478.343 323.5,477.5C 322.504,537.429 322.171,597.429 322.5,657.5C 317.453,657.663 312.453,657.329 307.5,656.5C 307.5,591.5 307.5,526.5 307.5,461.5C 318.61,458.279 329.277,453.945 339.5,448.5 Z"/></g>
<g><path style="opacity:1" fill="#d64f8c" d="M 328.5,415.5 C 329.768,417.905 330.435,420.572 330.5,423.5C 325.402,428.889 319.402,433.056 312.5,436C 319.366,436.119 326.033,434.952 332.5,432.5C 333.674,433.514 334.34,434.847 334.5,436.5C 320.526,448.501 304.859,458.001 287.5,465C 294.359,465.062 301.026,463.895 307.5,461.5C 307.5,526.5 307.5,591.5 307.5,656.5C 304.786,656.25 302.119,656.083 299.5,656C 293.866,662.479 287.533,667.979 280.5,672.5C 279.501,595.002 279.167,517.335 279.5,439.5C 296.509,432.828 312.843,424.828 328.5,415.5 Z"/></g>
<g><path style="opacity:1" fill="#2b91ab" d="M 364.5,446.5 C 371.035,453.202 378.035,459.369 385.5,465C 394.121,469.984 403.121,473.817 412.5,476.5C 411.799,483.067 411.132,489.733 410.5,496.5C 406.468,495.715 402.468,494.715 398.5,493.5C 396.5,492.833 394.5,492.167 392.5,491.5C 389.294,490.546 386.294,489.213 383.5,487.5C 378.833,485.167 374.167,482.833 369.5,480.5C 368.421,478.457 366.754,477.124 364.5,476.5C 364.5,476.167 364.5,475.833 364.5,475.5C 364.5,465.833 364.5,456.167 364.5,446.5 Z"/></g>
<g><path style="opacity:1" fill="#d45490" d="M 564.5,460.5 C 570.5,461.5 576.5,462.5 582.5,463.5C 582.167,543.335 582.501,623.002 583.5,702.5C 577.831,706.494 571.498,709.161 564.5,710.5C 564.5,627.167 564.5,543.833 564.5,460.5 Z"/></g>
<g><path style="opacity:1" fill="#a0b74c" d="M 509.5,462.5 C 515.102,466.527 514.769,467.194 508.5,464.5C 508.328,463.508 508.662,462.842 509.5,462.5 Z"/></g>
<g><path style="opacity:1" fill="#d64e8b" d="M 582.5,463.5 C 590.669,464.247 598.669,465.247 606.5,466.5C 605.5,466.5 604.5,466.5 603.5,466.5C 603.167,539.335 603.501,612.002 604.5,684.5C 598.683,691.991 591.683,697.991 583.5,702.5C 582.501,623.002 582.167,543.335 582.5,463.5 Z"/></g>
<g><path style="opacity:1" fill="#c66ea5" d="M 207.5,461.5 C 207.17,526.238 207.504,590.905 208.5,655.5C 200.841,655.337 193.841,653.171 187.5,649C 185.21,647.223 183.543,645.056 182.5,642.5C 182.5,586.167 182.5,529.833 182.5,473.5C 190.399,468.718 198.732,464.718 207.5,461.5 Z"/></g>
<g><path style="opacity:1" fill="#d94987" d="M 606.5,466.5 C 611.527,466.503 616.527,466.836 621.5,467.5C 621.5,540.167 621.5,612.833 621.5,685.5C 616.929,684.477 612.429,683.144 608,681.5C 606.826,682.544 605.659,683.544 604.5,684.5C 603.501,612.002 603.167,539.335 603.5,466.5C 604.5,466.5 605.5,466.5 606.5,466.5 Z"/></g>
<g><path style="opacity:1" fill="#98be2a" d="M 354.5,467.5 C 357.545,470.547 360.878,473.213 364.5,475.5C 364.5,475.833 364.5,476.167 364.5,476.5C 358,487.501 351,498.167 343.5,508.5C 338.564,513.938 333.397,519.271 328,524.5C 333.597,513.981 339.264,503.314 345,492.5C 348.668,484.327 351.834,475.993 354.5,467.5 Z"/></g>
<g><path style="opacity:1" fill="#dc4182" d="M 621.5,467.5 C 629.175,467.68 636.842,468.014 644.5,468.5C 644.5,541.833 644.5,615.167 644.5,688.5C 645.5,688.5 646.5,688.5 647.5,688.5C 638.665,689.48 629.998,688.48 621.5,685.5C 621.5,612.833 621.5,540.167 621.5,467.5 Z"/></g>
<g><path style="opacity:1" fill="#de387e" d="M 644.5,468.5 C 653.657,468.385 662.323,470.052 670.5,473.5C 669.167,542.167 669.167,610.833 670.5,679.5C 664.065,685.371 656.398,688.371 647.5,688.5C 646.5,688.5 645.5,688.5 644.5,688.5C 644.5,615.167 644.5,541.833 644.5,468.5 Z"/></g>
<g><path style="opacity:1" fill="#96bf2a" d="M 500.5,472.5 C 516.804,485.304 531.304,499.971 544,516.5C 544.667,517.167 544.667,517.833 544,518.5C 535.887,511.539 527.387,505.206 518.5,499.5C 509.737,492.417 500.404,486.084 490.5,480.5C 493.52,477.484 496.854,474.817 500.5,472.5 Z"/></g>
<g><path style="opacity:1" fill="#c174aa" d="M 182.5,473.5 C 182.5,529.833 182.5,586.167 182.5,642.5C 180.689,640.615 179.522,638.281 179,635.5C 178.057,628.853 177.223,622.186 176.5,615.5C 161.69,607.528 151.857,595.528 147,579.5C 145.579,565.097 149.412,552.264 158.5,541C 143.796,510.271 151.796,487.771 182.5,473.5 Z"/></g>
<g><path style="opacity:1" fill="#3aa4c1" d="M 482.5,458.5 C 483.493,466.984 483.826,475.651 483.5,484.5C 480.46,485.68 477.794,487.347 475.5,489.5C 470.835,490.057 466.502,491.39 462.5,493.5C 459.402,493.756 456.402,494.422 453.5,495.5C 448.99,495.884 444.657,496.551 440.5,497.5C 437.833,497.5 435.167,497.5 432.5,497.5C 429.5,497.5 426.5,497.5 423.5,497.5C 419.158,497.261 414.824,496.927 410.5,496.5C 411.132,489.733 411.799,483.067 412.5,476.5C 438.69,480.926 462.023,474.926 482.5,458.5 Z"/></g>
<g><path style="opacity:1" fill="#e22a78" d="M 670.5,473.5 C 688.474,479.729 698.641,492.396 701,511.5C 701.615,522.572 701.282,533.572 700,544.5C 707.818,552.795 714.151,562.128 719,572.5C 725.015,594.123 719.182,611.957 701.5,626C 698.64,628.36 695.64,630.527 692.5,632.5C 690.14,646.749 685.306,660.082 678,672.5C 675.63,675.039 673.13,677.372 670.5,679.5C 669.167,610.833 669.167,542.167 670.5,473.5 Z"/></g>
<g><path style="opacity:1" fill="#97be2a" d="M 369.5,480.5 C 374.167,482.833 378.833,485.167 383.5,487.5C 378.285,497.044 372.285,506.044 365.5,514.5C 363.661,515.508 362.328,517.008 361.5,519C 360.668,519.688 360.002,519.521 359.5,518.5C 365.025,506.401 368.358,493.734 369.5,480.5 Z"/></g>
<g><path style="opacity:1" fill="#ca679f" d="M 490.5,480.5 C 500.404,486.084 509.737,492.417 518.5,499.5C 518.5,565.5 518.5,631.5 518.5,697.5C 513.126,694.635 508.459,690.802 504.5,686C 499.961,684.3 495.294,683.133 490.5,682.5C 490.5,622.833 490.5,563.167 490.5,503.5C 499.461,510.627 507.628,518.627 515,527.5C 515.167,527 515.333,526.5 515.5,526C 512.749,520.252 509.582,514.752 506,509.5C 498.998,501 491.831,492.666 484.5,484.5C 486.147,482.674 488.147,481.34 490.5,480.5 Z"/></g>
<g><path style="opacity:1" fill="#96bf2a" d="M 483.5,484.5 C 483.833,484.5 484.167,484.5 484.5,484.5C 491.831,492.666 498.998,501 506,509.5C 509.582,514.752 512.749,520.252 515.5,526C 515.333,526.5 515.167,527 515,527.5C 507.628,518.627 499.461,510.627 490.5,503.5C 486.113,498.146 481.113,493.48 475.5,489.5C 477.794,487.347 480.46,485.68 483.5,484.5 Z"/></g>
<g><path style="opacity:1" fill="#c66ea5" d="M 475.5,489.5 C 481.113,493.48 486.113,498.146 490.5,503.5C 490.5,563.167 490.5,622.833 490.5,682.5C 480.14,681.716 470.807,678.383 462.5,672.5C 462.168,617.997 462.501,563.664 463.5,509.5C 466.137,512.989 468.637,516.655 471,520.5C 471.167,519.833 471.333,519.167 471.5,518.5C 468.742,510.003 465.742,501.669 462.5,493.5C 466.502,491.39 470.835,490.057 475.5,489.5 Z"/></g>
<g><path style="opacity:1" fill="#de3a7e" d="M 364.5,476.5 C 366.754,477.124 368.421,478.457 369.5,480.5C 368.358,493.734 365.025,506.401 359.5,518.5C 360.002,519.521 360.668,519.688 361.5,519C 362.328,517.008 363.661,515.508 365.5,514.5C 365.168,556.67 365.501,598.67 366.5,640.5C 360.227,647.141 352.56,651.474 343.5,653.5C 343.5,605.167 343.5,556.833 343.5,508.5C 351,498.167 358,487.501 364.5,476.5 Z"/></g>
<g><path style="opacity:1" fill="#9cba34" d="M 392.5,491.5 C 394.5,492.167 396.5,492.833 398.5,493.5C 394.921,498.98 391.088,504.314 387,509.5C 389.1,503.692 390.933,497.692 392.5,491.5 Z"/></g>
<g><path style="opacity:1" fill="#97be30" d="M 462.5,493.5 C 465.742,501.669 468.742,510.003 471.5,518.5C 471.333,519.167 471.167,519.833 471,520.5C 468.637,516.655 466.137,512.989 463.5,509.5C 460.555,504.555 457.221,499.888 453.5,495.5C 456.402,494.422 459.402,493.756 462.5,493.5 Z"/></g>
<g><path style="opacity:1" fill="#c273aa" d="M 453.5,495.5 C 457.221,499.888 460.555,504.555 463.5,509.5C 462.501,563.664 462.168,617.997 462.5,672.5C 454.577,668.911 448.577,663.244 444.5,655.5C 444.518,610.685 444.518,566.018 444.5,521.5C 444.143,513.3 442.81,505.3 440.5,497.5C 444.657,496.551 448.99,495.884 453.5,495.5 Z"/></g>
<g><path style="opacity:1" fill="#97be2f" d="M 432.5,497.5 C 435.167,497.5 437.833,497.5 440.5,497.5C 442.81,505.3 444.143,513.3 444.5,521.5C 440.519,513.539 436.519,505.539 432.5,497.5 Z"/></g>
<g><path style="opacity:1" fill="#e22978" d="M 383.5,487.5 C 386.294,489.213 389.294,490.546 392.5,491.5C 390.933,497.692 389.1,503.692 387,509.5C 391.088,504.314 394.921,498.98 398.5,493.5C 402.468,494.715 406.468,495.715 410.5,496.5C 409.833,526.668 405.667,556.334 398,585.5C 393.252,602.662 385.585,618.329 375,632.5C 372.297,635.371 369.464,638.038 366.5,640.5C 365.501,598.67 365.168,556.67 365.5,514.5C 372.285,506.044 378.285,497.044 383.5,487.5 Z"/></g>
<g><path style="opacity:1" fill="#bf76ad" d="M 423.5,497.5 C 426.5,497.5 429.5,497.5 432.5,497.5C 436.519,505.539 440.519,513.539 444.5,521.5C 444.518,566.018 444.518,610.685 444.5,655.5C 440.976,651.119 438.476,646.119 437,640.5C 432.755,627.101 429.755,613.434 428,599.5C 426.756,574.192 426.09,548.859 426,523.5C 424.909,514.852 424.076,506.185 423.5,497.5 Z"/></g>
<g><path style="opacity:1" fill="#db4383" d="M 349.5,462.5 C 351.5,463.833 353.167,465.5 354.5,467.5C 351.834,475.993 348.668,484.327 345,492.5C 339.264,503.314 333.597,513.981 328,524.5C 333.397,519.271 338.564,513.938 343.5,508.5C 343.5,556.833 343.5,605.167 343.5,653.5C 336.862,656.046 329.862,657.38 322.5,657.5C 322.171,597.429 322.504,537.429 323.5,477.5C 333.16,474.163 341.827,469.163 349.5,462.5 Z"/></g>
</svg>
