<?xml version="1.0" encoding="UTF-8"?>
<!DOCTYPE svg PUBLIC "-//W3C//DTD SVG 1.1//EN" "http://www.w3.org/Graphics/SVG/1.1/DTD/svg11.dtd">
<svg xmlns="http://www.w3.org/2000/svg" version="1.1" width="887px" height="299px" style="shape-rendering:geometricPrecision; text-rendering:geometricPrecision; image-rendering:optimizeQuality; fill-rule:evenodd; clip-rule:evenodd" xmlns:xlink="http://www.w3.org/1999/xlink">
<g><path style="opacity:0.968" fill="#e12f7b" d="M 193.5,59.5 C 174.5,59.5 155.5,59.5 136.5,59.5C 137.716,57.5491 139.382,56.0491 141.5,55C 145.417,53.5273 149.417,52.3606 153.5,51.5C 159.247,42.0622 166.58,40.5622 175.5,47C 185.229,46.0165 191.229,50.1832 193.5,59.5 Z"/></g>
<g><path style="opacity:0.986" fill="#dc3f82" d="M 136.5,59.5 C 155.5,59.5 174.5,59.5 193.5,59.5C 197.303,61.4035 199.969,64.4035 201.5,68.5C 178.833,68.5 156.167,68.5 133.5,68.5C 133.905,65.2854 134.905,62.2854 136.5,59.5 Z"/></g>
<g><path style="opacity:0.988" fill="#d74c8a" d="M 133.5,68.5 C 156.167,68.5 178.833,68.5 201.5,68.5C 201.5,71.8333 201.5,75.1667 201.5,78.5C 179.167,78.5 156.833,78.5 134.5,78.5C 133.521,75.3752 133.187,72.0419 133.5,68.5 Z"/></g>
<g><path style="opacity:0.979" fill="#d5528e" d="M 108.5,77.5 C 112.286,77.32 115.619,78.32 118.5,80.5C 118.5,100.5 118.5,120.5 118.5,140.5C 115.548,142.41 112.214,143.41 108.5,143.5C 108.5,121.5 108.5,99.5 108.5,77.5 Z"/></g>
<g><path style="opacity:0.992" fill="#cf5e97" d="M 108.5,77.5 C 108.5,99.5 108.5,121.5 108.5,143.5C 104.833,143.5 101.167,143.5 97.5,143.5C 97.5,122.5 97.5,101.5 97.5,80.5C 100.686,78.1257 104.353,77.1257 108.5,77.5 Z"/></g>
<g><path style="opacity:0.982" fill="#ca679f" d="M 97.5,80.5 C 97.5,101.5 97.5,122.5 97.5,143.5C 95.1055,142.985 92.7722,142.319 90.5,141.5C 90.5,122.5 90.5,103.5 90.5,84.5C 92.3356,82.412 94.6689,81.0787 97.5,80.5 Z"/></g>
<g><path style="opacity:0.945" fill="#da4686" d="M 118.5,80.5 C 122.049,81.7232 125.049,83.7232 127.5,86.5C 127.5,96.5 127.5,106.5 127.5,116.5C 125.863,115.782 124.197,115.616 122.5,116C 126.043,117.608 129.043,119.942 131.5,123C 128.21,122.631 124.877,122.631 121.5,123C 124.929,123.533 128.262,124.367 131.5,125.5C 131.5,128.833 131.5,132.167 131.5,135.5C 127.056,136.889 122.723,138.556 118.5,140.5C 118.5,120.5 118.5,100.5 118.5,80.5 Z"/></g>
<g><path style="opacity:0.981" fill="#d6508d" d="M 223.5,84.5 C 223.5,105.833 223.5,127.167 223.5,148.5C 219.936,149.423 216.269,149.756 212.5,149.5C 212.5,126.833 212.5,104.167 212.5,81.5C 216.483,80.7482 220.15,81.7482 223.5,84.5 Z"/></g>
<g><path style="opacity:0.981" fill="#d25892" d="M 134.5,78.5 C 156.833,78.5 179.167,78.5 201.5,78.5C 200.167,81.1667 198.833,83.8333 197.5,86.5C 177.167,86.5 156.833,86.5 136.5,86.5C 134.96,84.1617 134.294,81.4951 134.5,78.5 Z"/></g>
<g><path style="opacity:0.982" fill="#d05d96" d="M 212.5,81.5 C 212.5,104.167 212.5,126.833 212.5,149.5C 208.119,149.628 203.785,149.295 199.5,148.5C 199.5,129.5 199.5,110.5 199.5,91.5C 201.666,89.1633 203.666,86.6633 205.5,84C 207.441,82.0972 209.774,81.2639 212.5,81.5 Z"/></g>
<g><path style="opacity:0.994" fill="#db4384" d="M 235.5,83.5 C 235.5,104.833 235.5,126.167 235.5,147.5C 231.534,148.162 227.534,148.495 223.5,148.5C 223.5,127.167 223.5,105.833 223.5,84.5C 227.466,83.8379 231.466,83.5045 235.5,83.5 Z"/></g>
<g><path style="opacity:0.979" fill="#c66da5" d="M 90.5,84.5 C 90.5,103.5 90.5,122.5 90.5,141.5C 87.3257,140.99 84.9923,139.323 83.5,136.5C 83.5,119.5 83.5,102.5 83.5,85.5C 85.717,84.6314 88.0504,84.298 90.5,84.5 Z"/></g>
<g><path style="opacity:0.954" fill="#c173aa" d="M 83.5,85.5 C 83.5,102.5 83.5,119.5 83.5,136.5C 82.2101,135.942 81.3768,134.942 81,133.5C 80.8236,130.118 80.3236,126.785 79.5,123.5C 71.0739,117.024 70.4072,109.857 77.5,102C 76.3781,98.5915 76.2114,95.0915 77,91.5C 78.4055,88.5914 80.5722,86.5914 83.5,85.5 Z"/></g>
<g><path style="opacity:0.968" fill="#df357d" d="M 235.5,83.5 C 240.696,85.1797 243.529,88.8464 244,94.5C 244.995,95.0659 245.828,95.7326 246.5,96.5C 246.5,112.167 246.5,127.833 246.5,143.5C 243.124,145.595 239.458,146.929 235.5,147.5C 235.5,126.167 235.5,104.833 235.5,83.5 Z"/></g>
<g><path style="opacity:0.943" fill="#cd619a" d="M 136.5,86.5 C 156.833,86.5 177.167,86.5 197.5,86.5C 196.189,89.1354 194.522,91.4687 192.5,93.5C 179.833,93.5 167.167,93.5 154.5,93.5C 154.631,92.7611 154.464,92.0944 154,91.5C 152.765,101.953 151.099,101.953 149,91.5C 148.598,92.8721 148.098,94.2054 147.5,95.5C 148.444,98.4986 148.944,101.499 149,104.5C 143.087,99.6624 138.921,93.6624 136.5,86.5 Z"/></g>
<g><path style="opacity:0.916" fill="#c969a1" d="M 199.5,91.5 C 199.5,110.5 199.5,129.5 199.5,148.5C 195.624,146.863 191.624,145.529 187.5,144.5C 187.575,141.794 187.908,139.127 188.5,136.5C 196.327,135.21 196.327,134.543 188.5,134.5C 188.5,132.833 188.5,131.167 188.5,129.5C 199.069,128.191 199.069,127.525 188.5,127.5C 187.566,126.432 187.232,125.099 187.5,123.5C 195.562,119.403 195.229,118.736 186.5,121.5C 185.596,120.791 185.263,119.791 185.5,118.5C 185.5,117.833 185.167,117.5 184.5,117.5C 182.529,115.192 180.529,112.858 178.5,110.5C 185.175,103.825 192.175,97.4921 199.5,91.5 Z"/></g>
<g><path style="opacity:0.947" fill="#c969a1" d="M 154.5,93.5 C 167.167,93.5 179.833,93.5 192.5,93.5C 186.564,97.7669 181.23,102.767 176.5,108.5C 171.144,106.828 165.81,105.494 160.5,104.5C 161.473,102.932 161.64,101.265 161,99.5C 159.991,101.025 159.491,102.692 159.5,104.5C 158.292,105.234 156.959,105.567 155.5,105.5C 155.354,101.481 155.021,97.4809 154.5,93.5 Z M 160.5,104.5 C 160.167,104.5 159.833,104.5 159.5,104.5C 159.491,102.692 159.991,101.025 161,99.5C 161.64,101.265 161.473,102.932 160.5,104.5 Z"/></g>
<g><path style="opacity:0.953" fill="#df347c" d="M 127.5,86.5 C 135.1,92.3803 140.767,99.7137 144.5,108.5C 142.167,111.5 139.5,114.167 136.5,116.5C 129.74,112.204 129.073,112.871 134.5,118.5C 134.672,119.492 134.338,120.158 133.5,120.5C 131.463,119.154 129.463,117.82 127.5,116.5C 127.5,106.5 127.5,96.5 127.5,86.5 Z"/></g>
<g><path style="opacity:0.983" fill="#68b22d" d="M 309.5,102.5 C 295.167,102.5 280.833,102.5 266.5,102.5C 266.5,99.5 266.5,96.5 266.5,93.5C 280.833,93.5 295.167,93.5 309.5,93.5C 309.5,96.5 309.5,99.5 309.5,102.5 Z"/></g>
<g><path style="opacity:0.969" fill="#68b22d" d="M 468.5,102.5 C 452.833,102.5 437.167,102.5 421.5,102.5C 421.5,99.5 421.5,96.5 421.5,93.5C 432.838,93.3335 444.172,93.5001 455.5,94C 461.36,94.7245 465.693,97.5579 468.5,102.5 Z"/></g>
<g><path style="opacity:0.984" fill="#68b22d" d="M 704.5,102.5 C 688.5,102.5 672.5,102.5 656.5,102.5C 656.5,99.5 656.5,96.5 656.5,93.5C 672.5,93.5 688.5,93.5 704.5,93.5C 704.5,96.5 704.5,99.5 704.5,102.5 Z"/></g>
<g><path style="opacity:0.958" fill="#e32377" d="M 246.5,96.5 C 253.498,98.4746 257.165,103.141 257.5,110.5C 256.975,115.077 255.641,119.41 253.5,123.5C 255.451,131.711 253.117,138.378 246.5,143.5C 246.5,127.833 246.5,112.167 246.5,96.5 Z"/></g>
<g><path style="opacity:0.971" fill="#63b02d" d="M 412.5,106.5 C 396.167,106.5 379.833,106.5 363.5,106.5C 368.803,97.097 376.97,92.4303 388,92.5C 398.738,92.9444 406.904,97.6111 412.5,106.5 Z"/></g>
<g><path style="opacity:0.947" fill="#63b02e" d="M 519.5,107.5 C 513.833,107.5 508.167,107.5 502.5,107.5C 502.167,107.5 501.833,107.5 501.5,107.5C 495.833,107.5 490.167,107.5 484.5,107.5C 485.037,102.814 485.704,98.147 486.5,93.5C 496.506,93.3335 506.506,93.5002 516.5,94C 517.766,98.4241 518.766,102.924 519.5,107.5 Z"/></g>
<g><path style="opacity:0.955" fill="#63b02e" d="M 650.5,107.5 C 644.833,107.5 639.167,107.5 633.5,107.5C 633.167,106.167 632.833,106.167 632.5,107.5C 626.833,107.5 621.167,107.5 615.5,107.5C 615.95,102.798 616.617,98.1317 617.5,93.5C 627.506,93.3335 637.506,93.5002 647.5,94C 648.554,98.4918 649.554,102.992 650.5,107.5 Z"/></g>
<g><path style="opacity:0.931" fill="#63b02e" d="M 725.5,107.5 C 719.5,107.5 713.5,107.5 707.5,107.5C 707.5,102.833 707.5,98.1667 707.5,93.5C 713.5,93.5 719.5,93.5 725.5,93.5C 725.5,98.1667 725.5,102.833 725.5,107.5 Z"/></g>
<g><path style="opacity:0.955" fill="#63b02e" d="M 749.5,107.5 C 743.5,107.5 737.5,107.5 731.5,107.5C 730.402,102.908 729.735,98.241 729.5,93.5C 735.176,93.3339 740.843,93.5006 746.5,94C 747.554,98.4918 748.554,102.992 749.5,107.5 Z"/></g>
<g><path style="opacity:0.954" fill="#63b02e" d="M 818.5,107.5 C 806.833,107.5 795.167,107.5 783.5,107.5C 784.383,102.868 785.05,98.2016 785.5,93.5C 795.833,93.5 806.167,93.5 816.5,93.5C 816.95,98.2016 817.617,102.868 818.5,107.5 Z"/></g>
<g><path style="opacity:0.973" fill="#56aa30" d="M 363.5,106.5 C 379.833,106.5 396.167,106.5 412.5,106.5C 416.004,111.162 417.671,116.495 417.5,122.5C 411.833,122.5 406.167,122.5 400.5,122.5C 396.99,112.383 390.323,109.549 380.5,114C 377.926,116.318 376.259,119.151 375.5,122.5C 369.833,122.5 364.167,122.5 358.5,122.5C 358.193,116.428 359.859,111.095 363.5,106.5 Z"/></g>
<g><path style="opacity:0.984" fill="#58ab30" d="M 656.5,102.5 C 672.5,102.5 688.5,102.5 704.5,102.5C 704.5,105.833 704.5,109.167 704.5,112.5C 699.167,112.5 693.833,112.5 688.5,112.5C 688.5,117.5 688.5,122.5 688.5,127.5C 682.833,127.5 677.167,127.5 671.5,127.5C 671.5,122.5 671.5,117.5 671.5,112.5C 666.5,112.5 661.5,112.5 656.5,112.5C 656.5,109.167 656.5,105.833 656.5,102.5 Z"/></g>
<g><path style="opacity:0.983" fill="#5bad2f" d="M 266.5,102.5 C 280.833,102.5 295.167,102.5 309.5,102.5C 309.5,105.833 309.5,109.167 309.5,112.5C 300.833,112.5 292.167,112.5 283.5,112.5C 283.5,113.5 283.5,114.5 283.5,115.5C 292.349,115.174 301.016,115.507 309.5,116.5C 295.167,116.5 280.833,116.5 266.5,116.5C 266.5,111.833 266.5,107.167 266.5,102.5 Z"/></g>
<g><path style="opacity:0.977" fill="#5bad2f" d="M 421.5,102.5 C 437.167,102.5 452.833,102.5 468.5,102.5C 471.09,106.693 472.09,111.36 471.5,116.5C 465.833,116.5 460.167,116.5 454.5,116.5C 454.489,114.983 453.823,113.816 452.5,113C 448.179,112.501 443.846,112.334 439.5,112.5C 439.5,113.833 439.5,115.167 439.5,116.5C 433.5,116.5 427.5,116.5 421.5,116.5C 421.5,111.833 421.5,107.167 421.5,102.5 Z"/></g>
<g><path style="opacity:0.977" fill="#60af2e" d="M 581.5,111.5 C 572.5,111.5 563.5,111.5 554.5,111.5C 554.5,105.5 554.5,99.5 554.5,93.5C 560.868,93.1703 567.202,93.5037 573.5,94.5C 576.451,100.068 579.118,105.734 581.5,111.5 Z"/></g>
<g><path style="opacity:0.954" fill="#60af2e" d="M 777.5,111.5 C 771.833,111.5 766.167,111.5 760.5,111.5C 761.019,105.553 762.019,99.7194 763.5,94C 769.157,93.5006 774.824,93.3339 780.5,93.5C 780.009,99.6176 779.009,105.618 777.5,111.5 Z"/></g>
<g><path style="opacity:0.952" fill="#57ab30" d="M 783.5,107.5 C 795.167,107.5 806.833,107.5 818.5,107.5C 819.062,110.546 819.729,113.546 820.5,116.5C 814.5,116.5 808.5,116.5 802.5,116.5C 801.492,107.215 800.492,107.215 799.5,116.5C 793.833,116.5 788.167,116.5 782.5,116.5C 782.508,113.455 782.841,110.455 783.5,107.5 Z"/></g>
<g><path style="opacity:0.997" fill="#2e89a2" d="M 159.5,104.5 C 159.5,106.5 159.5,108.5 159.5,110.5C 149.354,111.824 142.187,117.157 138,126.5C 135.021,139.867 139.521,149.534 151.5,155.5C 150.157,157.683 150.49,159.683 152.5,161.5C 150.297,161.396 148.297,160.73 146.5,159.5C 145.391,159.443 144.391,159.11 143.5,158.5C 143.027,157.094 142.027,156.427 140.5,156.5C 140.5,155.833 140.167,155.5 139.5,155.5C 139.144,153.81 138.144,152.81 136.5,152.5C 136.5,152.167 136.5,151.833 136.5,151.5C 136.068,150.29 135.401,149.29 134.5,148.5C 134.167,147.833 133.833,147.167 133.5,146.5C 133.443,145.391 133.11,144.391 132.5,143.5C 132.5,142.833 132.167,142.5 131.5,142.5C 131.5,141.167 131.5,139.833 131.5,138.5C 131.5,137.5 131.5,136.5 131.5,135.5C 131.5,132.167 131.5,128.833 131.5,125.5C 132.537,124.07 133.204,122.403 133.5,120.5C 134.338,120.158 134.672,119.492 134.5,118.5C 135.5,118.167 136.167,117.5 136.5,116.5C 139.5,114.167 142.167,111.5 144.5,108.5C 147.991,106.892 151.658,105.892 155.5,105.5C 156.959,105.567 158.292,105.234 159.5,104.5 Z"/></g>
<g><path style="opacity:1" fill="#e9eced" d="M 159.5,110.5 C 173.538,112.037 181.538,119.87 183.5,134C 180.414,152.38 169.747,159.547 151.5,155.5C 139.521,149.534 135.021,139.867 138,126.5C 142.187,117.157 149.354,111.824 159.5,110.5 Z"/></g>
<g><path style="opacity:0.971" fill="#57ab30" d="M 330.5,122.5 C 324.833,122.5 319.167,122.5 313.5,122.5C 313.5,112.833 313.5,103.167 313.5,93.5C 319.167,93.5 324.833,93.5 330.5,93.5C 330.5,103.167 330.5,112.833 330.5,122.5 Z"/></g>
<g><path style="opacity:0.971" fill="#54a931" d="M 604.5,127.5 C 599.833,127.5 595.167,127.5 590.5,127.5C 590.167,126.167 589.833,126.167 589.5,127.5C 583.5,127.5 577.5,127.5 571.5,127.5C 571.167,126.167 570.833,126.167 570.5,127.5C 565.167,127.5 559.833,127.5 554.5,127.5C 554.5,122.167 554.5,116.833 554.5,111.5C 563.5,111.5 572.5,111.5 581.5,111.5C 584.226,115.946 586.726,120.613 589,125.5C 587.726,114.94 587.226,104.273 587.5,93.5C 593.167,93.5 598.833,93.5 604.5,93.5C 604.5,104.833 604.5,116.167 604.5,127.5 Z"/></g>
<g><path style="opacity:1" fill="#57b7d7" d="M 158.5,116.5 C 158.198,119.059 158.532,121.393 159.5,123.5C 158.434,125.701 157.767,128.035 157.5,130.5C 154.482,130.335 151.482,130.502 148.5,131C 150.977,132.643 153.31,134.476 155.5,136.5C 153.93,139.037 153.097,141.704 153,144.5C 154.113,143.695 155.279,143.028 156.5,142.5C 156.5,145.167 156.5,147.833 156.5,150.5C 159.167,150.5 161.833,150.5 164.5,150.5C 153.941,152.964 146.775,148.964 143,138.5C 141.373,126.304 146.54,118.971 158.5,116.5 Z"/></g>
<g><path style="opacity:1" fill="#2e90aa" d="M 158.5,116.5 C 172.753,116.926 178.92,124.26 177,138.5C 175.57,145.431 171.404,149.431 164.5,150.5C 161.833,150.5 159.167,150.5 156.5,150.5C 156.5,147.833 156.5,145.167 156.5,142.5C 157.315,141.163 158.482,140.163 160,139.5C 166.119,145.404 167.619,144.404 164.5,136.5C 166.666,134.507 168.999,132.673 171.5,131C 168.518,130.502 165.518,130.335 162.5,130.5C 162.329,127.122 161.329,124.789 159.5,123.5C 158.532,121.393 158.198,119.059 158.5,116.5 Z"/></g>
<g><path style="opacity:0.974" fill="#4aa532" d="M 421.5,116.5 C 427.5,116.5 433.5,116.5 439.5,116.5C 439.5,117.5 439.5,118.5 439.5,119.5C 443.514,119.666 447.514,119.499 451.5,119C 452.691,118.302 453.691,117.469 454.5,116.5C 460.167,116.5 465.833,116.5 471.5,116.5C 471.47,121.022 469.803,124.689 466.5,127.5C 451.5,127.5 436.5,127.5 421.5,127.5C 421.5,123.833 421.5,120.167 421.5,116.5 Z"/></g>
<g><path style="opacity:1" fill="#f2f7fa" d="M 156.5,142.5 C 155.279,143.028 154.113,143.695 153,144.5C 153.097,141.704 153.93,139.037 155.5,136.5C 153.31,134.476 150.977,132.643 148.5,131C 151.482,130.502 154.482,130.335 157.5,130.5C 157.767,128.035 158.434,125.701 159.5,123.5C 161.329,124.789 162.329,127.122 162.5,130.5C 165.518,130.335 168.518,130.502 171.5,131C 168.999,132.673 166.666,134.507 164.5,136.5C 167.619,144.404 166.119,145.404 160,139.5C 158.482,140.163 157.315,141.163 156.5,142.5 Z"/></g>
<g><path style="opacity:0.983" fill="#44a234" d="M 266.5,116.5 C 280.833,116.5 295.167,116.5 309.5,116.5C 309.5,122.5 309.5,128.5 309.5,134.5C 300.435,133.864 291.769,134.53 283.5,136.5C 277.833,136.5 272.167,136.5 266.5,136.5C 266.5,129.833 266.5,123.167 266.5,116.5 Z"/></g>
<g><path style="opacity:0.962" fill="#3c9f35" d="M 421.5,127.5 C 436.5,127.5 451.5,127.5 466.5,127.5C 463.96,130.607 460.627,132.44 456.5,133C 459.095,133.226 461.595,133.726 464,134.5C 465.467,137.758 466.633,141.092 467.5,144.5C 461.167,144.5 454.833,144.5 448.5,144.5C 448.106,138.769 445.106,136.436 439.5,137.5C 439.5,139.833 439.5,142.167 439.5,144.5C 433.5,144.5 427.5,144.5 421.5,144.5C 421.5,138.833 421.5,133.167 421.5,127.5 Z"/></g>
<g><path style="opacity:0.981" fill="#4aa533" d="M 484.5,107.5 C 490.167,107.5 495.833,107.5 501.5,107.5C 500.825,114.55 499.825,121.55 498.5,128.5C 500.5,128.5 502.5,128.5 504.5,128.5C 503.506,121.534 502.839,114.534 502.5,107.5C 508.167,107.5 513.833,107.5 519.5,107.5C 520.726,115.853 522.059,124.186 523.5,132.5C 509.167,132.5 494.833,132.5 480.5,132.5C 481.298,124.046 482.631,115.713 484.5,107.5 Z M 501.5,107.5 C 501.833,107.5 502.167,107.5 502.5,107.5C 502.839,114.534 503.506,121.534 504.5,128.5C 502.5,128.5 500.5,128.5 498.5,128.5C 499.825,121.55 500.825,114.55 501.5,107.5 Z"/></g>
<g><path style="opacity:0.981" fill="#4aa533" d="M 615.5,107.5 C 621.167,107.5 626.833,107.5 632.5,107.5C 631.608,114.516 630.608,121.516 629.5,128.5C 631.5,128.5 633.5,128.5 635.5,128.5C 634.288,121.557 633.621,114.557 633.5,107.5C 639.167,107.5 644.833,107.5 650.5,107.5C 651.51,115.895 652.844,124.229 654.5,132.5C 639.833,132.5 625.167,132.5 610.5,132.5C 612.071,124.054 613.738,115.721 615.5,107.5 Z"/></g>
<g><path style="opacity:0.931" fill="#49a533" d="M 707.5,107.5 C 713.5,107.5 719.5,107.5 725.5,107.5C 725.5,115.833 725.5,124.167 725.5,132.5C 719.5,132.5 713.5,132.5 707.5,132.5C 707.5,124.167 707.5,115.833 707.5,107.5 Z"/></g>
<g><path style="opacity:0.958" fill="#49a533" d="M 731.5,107.5 C 737.5,107.5 743.5,107.5 749.5,107.5C 750.51,115.895 751.844,124.229 753.5,132.5C 747.5,132.5 741.5,132.5 735.5,132.5C 734.059,124.186 732.726,115.853 731.5,107.5 Z"/></g>
<g><path style="opacity:0.94" fill="#48a433" d="M 760.5,111.5 C 766.167,111.5 771.833,111.5 777.5,111.5C 776.608,118.516 775.608,125.516 774.5,132.5C 768.5,132.5 762.5,132.5 756.5,132.5C 757.528,125.317 758.861,118.317 760.5,111.5 Z"/></g>
<g><path style="opacity:0.981" fill="#46a333" d="M 782.5,116.5 C 788.167,116.5 793.833,116.5 799.5,116.5C 799.314,120.448 798.648,124.281 797.5,128C 799.902,128.814 802.235,128.647 804.5,127.5C 803.51,123.895 802.844,120.228 802.5,116.5C 808.5,116.5 814.5,116.5 820.5,116.5C 821.167,121.833 821.833,127.167 822.5,132.5C 808.167,132.5 793.833,132.5 779.5,132.5C 780.087,126.963 781.087,121.63 782.5,116.5 Z"/></g>
<g><path style="opacity:0.926" fill="#3a9f35" d="M 313.5,122.5 C 319.167,122.5 324.833,122.5 330.5,122.5C 330.5,127.833 330.5,133.167 330.5,138.5C 339.167,138.5 347.833,138.5 356.5,138.5C 356.5,139.5 356.5,140.5 356.5,141.5C 342.167,141.5 327.833,141.5 313.5,141.5C 313.5,135.167 313.5,128.833 313.5,122.5 Z"/></g>
<g><path style="opacity:0.983" fill="#359d35" d="M 480.5,132.5 C 494.833,132.5 509.167,132.5 523.5,132.5C 524.167,136.5 524.833,140.5 525.5,144.5C 509.833,144.5 494.167,144.5 478.5,144.5C 478.539,140.267 479.205,136.267 480.5,132.5 Z"/></g>
<g><path style="opacity:0.978" fill="#359d35" d="M 610.5,132.5 C 625.167,132.5 639.833,132.5 654.5,132.5C 654.952,136.546 655.619,140.546 656.5,144.5C 640.5,144.5 624.5,144.5 608.5,144.5C 609.593,140.606 610.26,136.606 610.5,132.5 Z"/></g>
<g><path style="opacity:0.983" fill="#359d35" d="M 779.5,132.5 C 793.833,132.5 808.167,132.5 822.5,132.5C 823.593,136.394 824.26,140.394 824.5,144.5C 808.833,144.5 793.167,144.5 777.5,144.5C 777.782,140.426 778.448,136.426 779.5,132.5 Z"/></g>
<g><path style="opacity:0.939" fill="#3ca035" d="M 358.5,122.5 C 364.167,122.5 369.833,122.5 375.5,122.5C 374.828,131.85 378.994,137.517 388,139.5C 396.968,137.365 401.135,131.698 400.5,122.5C 406.167,122.5 411.833,122.5 417.5,122.5C 418.143,128.915 417.143,134.915 414.5,140.5C 396.833,140.5 379.167,140.5 361.5,140.5C 360.073,138.852 359.24,136.852 359,134.5C 358.501,130.514 358.334,126.514 358.5,122.5 Z"/></g>
<g><path style="opacity:1" fill="#57b5d5" d="M 159.5,104.5 C 159.833,104.5 160.167,104.5 160.5,104.5C 165.81,105.494 171.144,106.828 176.5,108.5C 176.833,109.5 177.5,110.167 178.5,110.5C 180.529,112.858 182.529,115.192 184.5,117.5C 185.167,117.5 185.5,117.833 185.5,118.5C 185.263,119.791 185.596,120.791 186.5,121.5C 186.833,122.167 187.167,122.833 187.5,123.5C 187.232,125.099 187.566,126.432 188.5,127.5C 188.5,128.167 188.5,128.833 188.5,129.5C 188.5,131.167 188.5,132.833 188.5,134.5C 188.5,135.167 188.5,135.833 188.5,136.5C 187.908,139.127 187.575,141.794 187.5,144.5C 186.89,145.391 186.557,146.391 186.5,147.5C 184.255,150.32 182.255,153.32 180.5,156.5C 179.508,156.328 178.842,156.662 178.5,157.5C 176.973,157.427 175.973,158.094 175.5,159.5C 175.167,159.5 174.833,159.5 174.5,159.5C 172.5,160.167 170.5,160.833 168.5,161.5C 168.167,161.5 167.833,161.5 167.5,161.5C 165.708,161.366 164.042,161.699 162.5,162.5C 162.167,162.5 161.833,162.5 161.5,162.5C 160.167,162.5 158.833,162.5 157.5,162.5C 156.833,162.5 156.167,162.5 155.5,162.5C 154.609,161.89 153.609,161.557 152.5,161.5C 150.49,159.683 150.157,157.683 151.5,155.5C 169.747,159.547 180.414,152.38 183.5,134C 181.538,119.87 173.538,112.037 159.5,110.5C 159.5,108.5 159.5,106.5 159.5,104.5 Z"/></g>
<g><path style="opacity:0.973" fill="#d74d8b" d="M 131.5,138.5 C 131.5,139.833 131.5,141.167 131.5,142.5C 132.167,142.5 132.5,142.833 132.5,143.5C 133.11,144.391 133.443,145.391 133.5,146.5C 131.205,147.475 129.205,148.808 127.5,150.5C 125.776,150.461 125.443,150.794 126.5,151.5C 126.5,170.167 126.5,188.833 126.5,207.5C 124.053,207.615 122.053,208.615 120.5,210.5C 120.5,188.5 120.5,166.5 120.5,144.5C 124.327,142.754 127.993,140.754 131.5,138.5 Z"/></g>
<g><path style="opacity:0.974" fill="#309c36" d="M 571.5,127.5 C 577.5,127.5 583.5,127.5 589.5,127.5C 589.833,127.5 590.167,127.5 590.5,127.5C 595.167,127.5 599.833,127.5 604.5,127.5C 604.5,137.5 604.5,147.5 604.5,157.5C 598.132,157.83 591.798,157.496 585.5,156.5C 580.547,146.929 575.881,137.262 571.5,127.5 Z"/></g>
<g><path style="opacity:0.944" fill="#339d35" d="M 735.5,132.5 C 741.5,132.5 747.5,132.5 753.5,132.5C 754.5,144.498 755.5,144.498 756.5,132.5C 762.5,132.5 768.5,132.5 774.5,132.5C 773.619,136.454 772.952,140.454 772.5,144.5C 760.833,144.5 749.167,144.5 737.5,144.5C 737.048,140.454 736.381,136.454 735.5,132.5 Z"/></g>
<g><path style="opacity:0.971" fill="#289937" d="M 361.5,140.5 C 379.167,140.5 396.833,140.5 414.5,140.5C 409.494,151.987 400.66,157.654 388,157.5C 375.114,157.982 366.28,152.316 361.5,140.5 Z"/></g>
<g><path style="opacity:0.96" fill="#239837" d="M 478.5,144.5 C 494.167,144.5 509.833,144.5 525.5,144.5C 526.425,148.79 527.091,153.124 527.5,157.5C 521.5,157.5 515.5,157.5 509.5,157.5C 509.384,154.14 509.051,150.807 508.5,147.5C 504.154,147.334 499.821,147.501 495.5,148C 494.568,151.085 493.901,154.252 493.5,157.5C 487.463,157.829 481.463,157.496 475.5,156.5C 476.297,152.331 477.297,148.331 478.5,144.5 Z"/></g>
<g><path style="opacity:0.962" fill="#239837" d="M 608.5,144.5 C 624.5,144.5 640.5,144.5 656.5,144.5C 657.275,148.814 657.941,153.147 658.5,157.5C 652.5,157.5 646.5,157.5 640.5,157.5C 640.167,154.167 639.833,150.833 639.5,147.5C 635.154,147.334 630.821,147.501 626.5,148C 625.39,151.049 624.723,154.216 624.5,157.5C 618.5,157.5 612.5,157.5 606.5,157.5C 607.425,153.21 608.091,148.876 608.5,144.5 Z"/></g>
<g><path style="opacity:0.931" fill="#2a9a36" d="M 707.5,132.5 C 713.5,132.5 719.5,132.5 725.5,132.5C 725.5,140.833 725.5,149.167 725.5,157.5C 719.5,157.5 713.5,157.5 707.5,157.5C 707.5,149.167 707.5,140.833 707.5,132.5 Z"/></g>
<g><path style="opacity:0.954" fill="#239837" d="M 777.5,144.5 C 793.167,144.5 808.833,144.5 824.5,144.5C 825.702,148.714 826.369,153.048 826.5,157.5C 820.794,157.829 815.128,157.495 809.5,156.5C 808.833,153.833 808.167,151.167 807.5,148.5C 803.217,147.508 798.884,147.174 794.5,147.5C 794.099,150.748 793.432,153.915 792.5,157C 786.843,157.499 781.176,157.666 775.5,157.5C 775.631,153.048 776.298,148.714 777.5,144.5 Z"/></g>
<g><path style="opacity:0.983" fill="#d35691" d="M 120.5,144.5 C 120.5,166.5 120.5,188.5 120.5,210.5C 118.421,212.873 115.754,214.206 112.5,214.5C 112.5,192.167 112.5,169.833 112.5,147.5C 114.936,146.129 117.603,145.129 120.5,144.5 Z"/></g>
<g><path style="opacity:0.983" fill="#cf5f98" d="M 112.5,147.5 C 112.5,169.833 112.5,192.167 112.5,214.5C 110.05,214.702 107.717,214.369 105.5,213.5C 105.5,191.833 105.5,170.167 105.5,148.5C 107.764,147.781 110.097,147.448 112.5,147.5 Z"/></g>
<g><path style="opacity:0.985" fill="#269937" d="M 266.5,136.5 C 272.167,136.5 277.833,136.5 283.5,136.5C 283.5,143.5 283.5,150.5 283.5,157.5C 277.833,157.5 272.167,157.5 266.5,157.5C 266.5,150.5 266.5,143.5 266.5,136.5 Z"/></g>
<g><path style="opacity:0.983" fill="#239837" d="M 313.5,141.5 C 327.833,141.5 342.167,141.5 356.5,141.5C 356.5,146.833 356.5,152.167 356.5,157.5C 342.167,157.5 327.833,157.5 313.5,157.5C 313.5,152.167 313.5,146.833 313.5,141.5 Z"/></g>
<g><path style="opacity:0.982" fill="#cb669e" d="M 105.5,148.5 C 105.5,170.167 105.5,191.833 105.5,213.5C 102.553,212.219 100.219,210.219 98.5,207.5C 98.5,188.833 98.5,170.167 98.5,151.5C 100.679,150.323 103.013,149.323 105.5,148.5 Z"/></g>
<g><path style="opacity:0.969" fill="#ce5f99" d="M 186.5,147.5 C 188.833,148.167 191.167,148.833 193.5,149.5C 193.5,173.833 193.5,198.167 193.5,222.5C 190.351,222.585 187.684,221.585 185.5,219.5C 185.5,200.5 185.5,181.5 185.5,162.5C 186.833,162.167 186.833,161.833 185.5,161.5C 185.5,160.833 185.167,160.5 184.5,160.5C 183.5,158.833 182.167,157.5 180.5,156.5C 182.255,153.32 184.255,150.32 186.5,147.5 Z"/></g>
<g><path style="opacity:0.987" fill="#da4485" d="M 134.5,148.5 C 135.401,149.29 136.068,150.29 136.5,151.5C 135.167,151.833 135.167,152.167 136.5,152.5C 138.144,152.81 139.144,153.81 139.5,155.5C 138.095,157.64 137.262,159.974 137,162.5C 137.852,161.429 138.685,160.429 139.5,159.5C 139.5,174.833 139.5,190.167 139.5,205.5C 135.369,207.183 131.036,207.85 126.5,207.5C 126.5,188.833 126.5,170.167 126.5,151.5C 127.167,151.5 127.5,151.167 127.5,150.5C 129.921,150.122 132.254,149.455 134.5,148.5 Z"/></g>
<g><path style="opacity:0.98" fill="#d45691" d="M 193.5,149.5 C 196.762,150.752 200.095,151.752 203.5,152.5C 203.5,175.167 203.5,197.833 203.5,220.5C 200.378,222.591 197.045,223.258 193.5,222.5C 193.5,198.167 193.5,173.833 193.5,149.5 Z"/></g>
<g><path style="opacity:0.931" fill="#1e9737" d="M 421.5,144.5 C 427.5,144.5 433.5,144.5 439.5,144.5C 439.5,148.833 439.5,153.167 439.5,157.5C 433.5,157.5 427.5,157.5 421.5,157.5C 421.5,153.167 421.5,148.833 421.5,144.5 Z"/></g>
<g><path style="opacity:0.954" fill="#1e9737" d="M 448.5,144.5 C 454.833,144.5 461.167,144.5 467.5,144.5C 469.964,148.444 471.63,152.777 472.5,157.5C 466.167,157.5 459.833,157.5 453.5,157.5C 452.115,153.062 450.448,148.729 448.5,144.5 Z"/></g>
<g><path style="opacity:0.971" fill="#289937" d="M 554.5,127.5 C 559.833,127.5 565.167,127.5 570.5,127.5C 571.396,137.468 571.729,147.468 571.5,157.5C 565.833,157.5 560.167,157.5 554.5,157.5C 554.5,147.5 554.5,137.5 554.5,127.5 Z"/></g>
<g><path style="opacity:0.971" fill="#289937" d="M 671.5,127.5 C 677.167,127.5 682.833,127.5 688.5,127.5C 688.5,137.5 688.5,147.5 688.5,157.5C 682.833,157.5 677.167,157.5 671.5,157.5C 671.5,147.5 671.5,137.5 671.5,127.5 Z"/></g>
<g><path style="opacity:0.978" fill="#1f9737" d="M 737.5,144.5 C 749.167,144.5 760.833,144.5 772.5,144.5C 771.319,148.743 770.652,153.076 770.5,157.5C 760.167,157.5 749.833,157.5 739.5,157.5C 739.156,153.106 738.49,148.772 737.5,144.5 Z"/></g>
<g><path style="opacity:0.984" fill="#c66da5" d="M 98.5,151.5 C 98.5,170.167 98.5,188.833 98.5,207.5C 95.6538,207.448 93.3204,206.448 91.5,204.5C 91.5,187.833 91.5,171.167 91.5,154.5C 93.7128,153.227 96.0462,152.227 98.5,151.5 Z"/></g>
<g><path style="opacity:0.981" fill="#d64e8c" d="M 203.5,152.5 C 205.5,152.5 207.5,152.5 209.5,152.5C 209.5,173.5 209.5,194.5 209.5,215.5C 208.089,217.914 206.089,219.581 203.5,220.5C 203.5,197.833 203.5,175.167 203.5,152.5 Z"/></g>
<g><path style="opacity:0.99" fill="#da4585" d="M 209.5,152.5 C 212.391,153.403 215.391,153.736 218.5,153.5C 218.5,174.5 218.5,195.5 218.5,216.5C 215.801,216.534 213.301,215.867 211,214.5C 210.617,215.056 210.117,215.389 209.5,215.5C 209.5,194.5 209.5,173.5 209.5,152.5 Z"/></g>
<g><path style="opacity:0.98" fill="#de3b7f" d="M 218.5,153.5 C 222.16,153.159 225.493,153.825 228.5,155.5C 228.5,174.833 228.5,194.167 228.5,213.5C 227.942,214.79 226.942,215.623 225.5,216C 223.19,216.497 220.857,216.663 218.5,216.5C 218.5,195.5 218.5,174.5 218.5,153.5 Z"/></g>
<g><path style="opacity:0.974" fill="#e22b79" d="M 228.5,155.5 C 234.975,157.755 237.975,162.422 237.5,169.5C 237.41,171.228 237.077,172.894 236.5,174.5C 242.981,180.963 244.147,188.296 240,196.5C 238.622,198.213 236.955,199.547 235,200.5C 234.389,205.723 232.222,210.057 228.5,213.5C 228.5,194.167 228.5,174.833 228.5,155.5 Z"/></g>
<g><path style="opacity:0.956" fill="#ca679f" d="M 178.5,157.5 C 180.517,158.529 182.517,159.529 184.5,160.5C 185.167,160.5 185.5,160.833 185.5,161.5C 185.5,161.833 185.5,162.167 185.5,162.5C 185.5,181.5 185.5,200.5 185.5,219.5C 182.79,217.768 180.124,216.101 177.5,214.5C 177.5,197.5 177.5,180.5 177.5,163.5C 178.833,163.167 178.833,162.833 177.5,162.5C 177.5,161.833 177.167,161.5 176.5,161.5C 176.5,160.833 176.167,160.5 175.5,160.5C 175.5,160.167 175.5,159.833 175.5,159.5C 175.973,158.094 176.973,157.427 178.5,157.5 Z"/></g>
<g><path style="opacity:0.836" fill="#c075ad" d="M 91.5,154.5 C 91.5,171.167 91.5,187.833 91.5,204.5C 90.2101,203.942 89.3768,202.942 89,201.5C 88.8078,199.423 88.3078,197.423 87.5,195.5C 82.6155,192.957 80.2822,188.957 80.5,183.5C 80.481,180.173 81.1477,177.007 82.5,174C 79.1811,164.475 82.1811,157.975 91.5,154.5 Z"/></g>
<g><path style="opacity:0.973" fill="#c66da5" d="M 174.5,159.5 C 174.5,160.167 174.833,160.5 175.5,160.5C 176.167,160.5 176.5,160.833 176.5,161.5C 177.167,161.5 177.5,161.833 177.5,162.5C 177.5,162.833 177.5,163.167 177.5,163.5C 177.5,180.5 177.5,197.5 177.5,214.5C 174.659,214.44 171.993,213.774 169.5,212.5C 169.5,196.167 169.5,179.833 169.5,163.5C 169.5,162.833 169.167,162.5 168.5,162.5C 168.5,162.167 168.5,161.833 168.5,161.5C 170.5,160.833 172.5,160.167 174.5,159.5 Z"/></g>
<g><path style="opacity:0.962" fill="#e12d7a" d="M 140.5,156.5 C 142.027,156.427 143.027,157.094 143.5,158.5C 141.833,166.154 142.833,166.487 146.5,159.5C 148.297,160.73 150.297,161.396 152.5,161.5C 153.609,161.557 154.609,161.89 155.5,162.5C 155.693,177.072 151.86,190.405 144,202.5C 142.385,203.386 140.885,204.386 139.5,205.5C 139.5,190.167 139.5,174.833 139.5,159.5C 140.11,158.609 140.443,157.609 140.5,156.5 Z"/></g>
<g><path style="opacity:0.983" fill="#c174ab" d="M 167.5,161.5 C 167.5,162.167 167.833,162.5 168.5,162.5C 169.167,162.5 169.5,162.833 169.5,163.5C 169.5,179.833 169.5,196.167 169.5,212.5C 164.958,209.763 162.125,205.763 161,200.5C 159.093,187.856 157.926,175.19 157.5,162.5C 158.833,162.5 160.167,162.5 161.5,162.5C 161.833,163.833 162.167,163.833 162.5,162.5C 164.042,161.699 165.708,161.366 167.5,161.5 Z"/></g>
<g><path style="opacity:0.624" fill="#69b32c" d="M 831.5,168.5 C 640.167,168.5 448.833,168.5 257.5,168.5C 257.414,167.504 257.748,166.671 258.5,166C 449.167,165.333 639.833,165.333 830.5,166C 831.252,166.671 831.586,167.504 831.5,168.5 Z"/></g>
<g><path style="opacity:0.998" fill="#48a433" d="M 257.5,168.5 C 448.833,168.5 640.167,168.5 831.5,168.5C 831.5,169.5 831.5,170.5 831.5,171.5C 640.167,171.5 448.833,171.5 257.5,171.5C 257.5,170.5 257.5,169.5 257.5,168.5 Z"/></g>
<g><path style="opacity:0.751" fill="#269937" d="M 257.5,171.5 C 448.833,171.5 640.167,171.5 831.5,171.5C 831.389,172.117 831.056,172.617 830.5,173C 735,173.167 639.5,173.333 544,173.5C 448.164,173.5 352.664,172.833 257.5,171.5 Z"/></g>
<g><path style="opacity:0.708" fill="#5dae2f" d="M 438.5,206.5 C 438.5,208.5 438.5,210.5 438.5,212.5C 434.036,212.634 430.536,210.968 428,207.5C 427.5,201.175 427.334,194.842 427.5,188.5C 429.5,188.5 431.5,188.5 433.5,188.5C 433.334,194.176 433.501,199.843 434,205.5C 435.356,206.38 436.856,206.714 438.5,206.5 Z"/></g>
<g><path style="opacity:0.461" fill="#259837" d="M 438.5,212.5 C 438.5,210.5 438.5,208.5 438.5,206.5C 439.75,206.423 440.583,205.756 441,204.5C 441.499,199.177 441.666,193.844 441.5,188.5C 443.5,188.5 445.5,188.5 447.5,188.5C 447.877,195.257 447.377,201.924 446,208.5C 444.008,210.789 441.508,212.123 438.5,212.5 Z"/></g>
<g><path style="opacity:0.967" fill="#60af2e" d="M 629.5,206.5 C 629.5,208.5 629.5,210.5 629.5,212.5C 625.779,212.217 622.946,210.55 621,207.5C 620.5,201.175 620.334,194.842 620.5,188.5C 622.5,188.5 624.5,188.5 626.5,188.5C 626.334,194.176 626.501,199.843 627,205.5C 627.671,206.252 628.504,206.586 629.5,206.5 Z"/></g>
<g><path style="opacity:0.723" fill="#289936" d="M 629.5,212.5 C 629.5,210.5 629.5,208.5 629.5,206.5C 631.144,206.714 632.644,206.38 634,205.5C 634.499,199.843 634.666,194.176 634.5,188.5C 636.5,188.5 638.5,188.5 640.5,188.5C 640.666,194.509 640.499,200.509 640,206.5C 637.882,210.825 634.382,212.825 629.5,212.5 Z"/></g>
<g><path style="opacity:0.989" fill="#49a533" d="M 659.5,188.5 C 661.5,188.5 663.5,188.5 665.5,188.5C 665.5,196.167 665.5,203.833 665.5,211.5C 663.5,211.5 661.5,211.5 659.5,211.5C 659.5,203.833 659.5,196.167 659.5,188.5 Z"/></g>
<g><path style="opacity:0.978" fill="#5dad2f" d="M 683.5,188.5 C 685.5,188.5 687.5,188.5 689.5,188.5C 689.5,194.5 689.5,200.5 689.5,206.5C 693.5,206.5 697.5,206.5 701.5,206.5C 701.5,208.167 701.5,209.833 701.5,211.5C 695.5,211.5 689.5,211.5 683.5,211.5C 683.5,203.833 683.5,196.167 683.5,188.5 Z"/></g>
<g><path style="opacity:0.897" fill="#5cad2f" d="M 398.5,187.5 C 398.5,189.5 398.5,191.5 398.5,193.5C 391.547,195.549 390.214,199.382 394.5,205C 395.745,205.791 397.078,206.291 398.5,206.5C 398.5,208.167 398.5,209.833 398.5,211.5C 387.742,210.672 383.909,205.006 387,194.5C 389.476,190.009 393.309,187.676 398.5,187.5 Z"/></g>
<g><path style="opacity:0.796" fill="#329c35" d="M 398.5,187.5 C 403.029,187.925 406.363,190.092 408.5,194C 407.663,195.587 406.33,196.42 404.5,196.5C 402.506,195.511 400.506,194.511 398.5,193.5C 398.5,191.5 398.5,189.5 398.5,187.5 Z"/></g>
<g><path style="opacity:0.898" fill="#359d35" d="M 552.5,188.5 C 556.624,195.662 560.291,203.162 563.5,211C 559.57,212.421 556.903,211.254 555.5,207.5C 554.675,206.614 553.675,206.281 552.5,206.5C 552.5,204.833 552.5,203.167 552.5,201.5C 553.116,200.798 553.116,199.798 552.5,198.5C 552.5,195.167 552.5,191.833 552.5,188.5 Z"/></g>
<g><path style="opacity:0.882" fill="#5cad2f" d="M 590.5,187.5 C 590.5,189.5 590.5,191.5 590.5,193.5C 584.937,194.961 583.437,198.295 586,203.5C 587.11,205.037 588.61,205.703 590.5,205.5C 590.5,207.5 590.5,209.5 590.5,211.5C 580.097,209.708 576.597,203.708 580,193.5C 582.424,189.568 585.924,187.568 590.5,187.5 Z"/></g>
<g><path style="opacity:0.924" fill="#46a433" d="M 473.5,188.5 C 475.924,188.192 478.257,188.526 480.5,189.5C 483.934,196.642 487.267,203.808 490.5,211C 486.57,212.421 483.903,211.254 482.5,207.5C 478.833,206.167 475.167,206.167 471.5,207.5C 470.478,210.987 468.145,212.32 464.5,211.5C 467.216,203.732 470.216,196.066 473.5,188.5 Z M 476.5,195.5 C 478.539,196.911 479.539,198.911 479.5,201.5C 477.712,201.785 476.045,201.452 474.5,200.5C 475.456,198.925 476.123,197.258 476.5,195.5 Z"/></g>
<g><path style="opacity:0.933" fill="#2c9b36" d="M 590.5,187.5 C 595.86,188.035 599.694,190.701 602,195.5C 601.767,200.904 601.934,206.237 602.5,211.5C 598.5,211.5 594.5,211.5 590.5,211.5C 590.5,209.5 590.5,207.5 590.5,205.5C 595.776,204.707 597.609,201.707 596,196.5C 594.512,194.84 592.679,193.84 590.5,193.5C 590.5,191.5 590.5,189.5 590.5,187.5 Z"/></g>
<g><path style="opacity:0.949" fill="#46a333" d="M 502.5,188.5 C 504.857,188.337 507.19,188.503 509.5,189C 510.63,191.428 512.13,193.595 514,195.5C 515.377,193.246 516.877,191.08 518.5,189C 520.579,188.192 522.579,188.359 524.5,189.5C 522,193.833 519.5,198.167 517,202.5C 516.502,205.482 516.335,208.482 516.5,211.5C 514.5,211.5 512.5,211.5 510.5,211.5C 510.665,208.15 510.498,204.817 510,201.5C 506.971,197.438 504.471,193.105 502.5,188.5 Z"/></g>
<g><path style="opacity:0.823" fill="#59ab30" d="M 552.5,188.5 C 552.5,191.833 552.5,195.167 552.5,198.5C 551.685,197.571 550.852,196.571 550,195.5C 549.167,197.167 548.333,198.833 547.5,200.5C 549.045,201.452 550.712,201.785 552.5,201.5C 552.5,203.167 552.5,204.833 552.5,206.5C 547.913,205.622 544.58,207.122 542.5,211C 540.866,211.494 539.199,211.66 537.5,211.5C 540.304,203.754 543.304,196.088 546.5,188.5C 548.5,188.5 550.5,188.5 552.5,188.5 Z"/></g>
<g><path style="opacity:0.87" fill="#2e9b36" d="M 398.5,211.5 C 398.5,209.833 398.5,208.167 398.5,206.5C 404.033,204.112 403.699,203.112 397.5,203.5C 397.5,201.833 397.5,200.167 397.5,198.5C 401.5,198.5 405.5,198.5 409.5,198.5C 410.469,206.859 406.802,211.192 398.5,211.5 Z"/></g>
</svg>
