<?xml version="1.0" encoding="UTF-8"?>
<!DOCTYPE svg PUBLIC "-//W3C//DTD SVG 1.1//EN" "http://www.w3.org/Graphics/SVG/1.1/DTD/svg11.dtd">
<svg xmlns="http://www.w3.org/2000/svg" version="1.1" width="887px" height="796px" style="shape-rendering:geometricPrecision; text-rendering:geometricPrecision; image-rendering:optimizeQuality; fill-rule:evenodd; clip-rule:evenodd" xmlns:xlink="http://www.w3.org/1999/xlink">
<g><path style="opacity:0.995" fill="#1e9f6e" d="M 210.5,66.5 C 362.834,66.3333 515.167,66.5 667.5,67C 712.915,71.9417 745.749,94.775 766,135.5C 771.202,146.972 774.535,158.972 776,171.5C 776.667,326.5 776.667,481.5 776,636.5C 769.24,682.251 744.74,714.418 702.5,733C 691.535,737.241 680.201,739.908 668.5,741C 515.5,741.667 362.5,741.667 209.5,741C 161.119,734.267 127.619,708.434 109,663.5C 104.759,651.87 102.426,639.87 102,627.5C 101.016,474.817 101.35,322.15 103,169.5C 111.874,119.626 140.374,86.7931 188.5,71C 195.905,69.1598 203.239,67.6598 210.5,66.5 Z"/></g>
<g><path style="opacity:1" fill="#f5f5f5" d="M 477.5,318.5 C 473.828,315.662 469.828,313.329 465.5,311.5C 468.264,304.024 467.597,303.691 463.5,310.5C 458.167,308.833 452.833,307.167 447.5,305.5C 448.303,304.577 448.47,303.577 448,302.5C 446.556,304.155 444.722,304.822 442.5,304.5C 439.193,303.949 435.86,303.616 432.5,303.5C 433.452,296.802 434.285,290.135 435,283.5C 430.185,289.463 426.685,296.129 424.5,303.5C 421.167,303.5 417.833,303.5 414.5,303.5C 413.437,286.792 413.27,270.126 414,253.5C 408.014,262.624 404.514,272.624 403.5,283.5C 402.833,285.5 402.167,287.5 401.5,289.5C 397.413,278.822 394.413,267.822 392.5,256.5C 389.553,263.849 388.219,271.516 388.5,279.5C 388.605,288.399 389.772,297.066 392,305.5C 355.698,272.262 341.031,231.262 348,182.5C 355.799,161.999 370.632,150.165 392.5,147C 397.167,146.667 401.833,146.333 406.5,146C 411.659,136.832 418.326,128.832 426.5,122C 438.885,115.015 451.552,114.681 464.5,121C 469.008,123.753 473.341,126.753 477.5,130C 484.833,130.333 492.167,130.667 499.5,131C 516.196,134.836 525.696,145.336 528,162.5C 537.333,169.167 545.333,177.167 552,186.5C 557.225,195.851 559.225,205.851 558,216.5C 551.018,242.973 537.518,265.473 517.5,284C 501.564,292.432 488.231,303.932 477.5,318.5 Z"/></g>
<g><path style="opacity:1" fill="#f5f5f5" d="M 376.5,317.5 C 371.842,321.164 367.175,324.831 362.5,328.5C 358,325.91 357.666,326.244 361.5,329.5C 358.537,333.798 355.203,337.798 351.5,341.5C 340.51,334.669 328.843,329.502 316.5,326C 327.287,333.621 336.954,342.454 345.5,352.5C 345.068,353.71 344.401,354.71 343.5,355.5C 327.485,344.492 309.819,337.992 290.5,336C 307.383,343.224 322.383,353.224 335.5,366C 327.437,364.432 319.27,363.265 311,362.5C 305.014,362.288 299.18,363.122 293.5,365C 308.072,367.547 322.405,371.047 336.5,375.5C 335.713,385.146 335.38,394.812 335.5,404.5C 328.345,406.497 321.345,408.997 314.5,412C 279.865,432.748 243.532,436.082 205.5,422C 183.123,411.412 174.457,393.912 179.5,369.5C 169.337,362.491 161.503,353.491 156,342.5C 151.678,331.709 153.011,321.709 160,312.5C 162.667,309.833 165.333,307.167 168,304.5C 167.712,296.682 167.212,288.849 166.5,281C 166.59,263.243 175.256,252.243 192.5,248C 198.461,247.003 204.461,246.337 210.5,246C 240.573,220.388 272.573,217.721 306.5,238C 336.079,259.074 359.412,285.574 376.5,317.5 Z"/></g>
<g><path style="opacity:1" fill="#f5f5f5" d="M 508.5,431.5 C 510.504,424.15 512.504,416.817 514.5,409.5C 523.081,407.844 531.747,406.844 540.5,406.5C 542.857,406.663 545.19,406.497 547.5,406C 546.756,404.961 545.756,404.461 544.5,404.5C 534.678,401.954 524.678,400.621 514.5,400.5C 515.414,397.272 515.747,393.939 515.5,390.5C 527.974,386.638 540.641,383.471 553.5,381C 541.306,377.049 528.973,376.549 516.5,379.5C 515.25,379.423 514.417,378.756 514,377.5C 513.505,375.527 513.338,373.527 513.5,371.5C 525.883,362.334 539.217,354.501 553.5,348C 538.064,348.979 523.731,353.479 510.5,361.5C 508.98,359.11 507.98,356.443 507.5,353.5C 517.456,345.053 528.123,337.553 539.5,331C 526.555,333.806 514.888,339.306 504.5,347.5C 502.53,345.353 500.697,343.02 499,340.5C 498.383,339.551 498.549,338.718 499.5,338C 494.742,334.411 490.408,330.244 486.5,325.5C 493.577,319.929 500.244,313.762 506.5,307C 516.833,299.333 527.167,291.667 537.5,284C 550.201,270.967 562.534,257.634 574.5,244C 589.777,233.102 605.444,232.769 621.5,243C 624.095,245.213 626.928,247.047 630,248.5C 664.369,233.932 684.869,244.932 691.5,281.5C 723.895,289.691 736.728,310.024 730,342.5C 727.918,349.078 725.252,355.411 722,361.5C 728.954,405.469 710.787,431.969 667.5,441C 636.042,446.26 604.376,448.594 572.5,448C 556.43,445.313 540.763,440.979 525.5,435C 519.909,433.402 514.242,432.235 508.5,431.5 Z"/></g>
<g><path style="opacity:1" fill="#29a171" d="M 432.5,303.5 C 429.833,303.5 427.167,303.5 424.5,303.5C 426.685,296.129 430.185,289.463 435,283.5C 434.285,290.135 433.452,296.802 432.5,303.5 Z"/></g>
<g><path style="opacity:1" fill="#83bc9c" d="M 403.5,283.5 C 403.808,285.924 403.474,288.257 402.5,290.5C 401.893,290.376 401.56,290.043 401.5,289.5C 402.167,287.5 402.833,285.5 403.5,283.5 Z"/></g>
<g><path style="opacity:1" fill="#717070" d="M 414.5,303.5 C 417.833,303.5 421.167,303.5 424.5,303.5C 427.167,303.5 429.833,303.5 432.5,303.5C 435.86,303.616 439.193,303.949 442.5,304.5C 443.919,305.451 445.585,305.784 447.5,305.5C 452.833,307.167 458.167,308.833 463.5,310.5C 464.167,310.833 464.833,311.167 465.5,311.5C 469.828,313.329 473.828,315.662 477.5,318.5C 480.81,320.482 483.81,322.815 486.5,325.5C 490.408,330.244 494.742,334.411 499.5,338C 498.549,338.718 498.383,339.551 499,340.5C 500.697,343.02 502.53,345.353 504.5,347.5C 504.992,349.819 505.992,351.819 507.5,353.5C 507.98,356.443 508.98,359.11 510.5,361.5C 511.13,365.048 512.13,368.381 513.5,371.5C 513.338,373.527 513.505,375.527 514,377.5C 514.417,378.756 515.25,379.423 516.5,379.5C 515.722,380.156 515.056,380.989 514.5,382C 515.348,384.77 515.681,387.603 515.5,390.5C 515.747,393.939 515.414,397.272 514.5,400.5C 514.5,403.5 514.5,406.5 514.5,409.5C 512.504,416.817 510.504,424.15 508.5,431.5C 506.562,435.043 504.895,438.71 503.5,442.5C 500.512,446.462 497.512,450.462 494.5,454.5C 493.094,454.973 492.427,455.973 492.5,457.5C 489.573,458.757 487.239,460.757 485.5,463.5C 482.129,465.846 478.796,468.179 475.5,470.5C 473.326,470.75 471.659,471.75 470.5,473.5C 467.426,474.302 464.426,475.302 461.5,476.5C 458.646,477.205 455.979,478.205 453.5,479.5C 450.094,479.956 446.761,480.622 443.5,481.5C 440.941,481.198 438.607,481.532 436.5,482.5C 432.833,482.5 429.167,482.5 425.5,482.5C 424.167,482.5 422.833,482.5 421.5,482.5C 418.833,482.5 416.167,482.5 413.5,482.5C 413.158,481.662 412.492,481.328 411.5,481.5C 407.968,481.69 404.635,481.023 401.5,479.5C 399.784,479.371 398.117,479.038 396.5,478.5C 393.579,477.304 390.579,476.304 387.5,475.5C 384.001,473.25 380.335,471.25 376.5,469.5C 374.795,467.808 372.795,466.475 370.5,465.5C 368.122,463.122 365.455,461.122 362.5,459.5C 360.581,457.18 358.581,454.847 356.5,452.5C 354.804,450.475 353.137,448.475 351.5,446.5C 350.189,443.865 348.522,441.531 346.5,439.5C 345.439,436.378 344.105,433.378 342.5,430.5C 342.029,428.421 341.363,426.421 340.5,424.5C 340.204,422.597 339.537,420.93 338.5,419.5C 338.785,416.171 338.118,413.171 336.5,410.5C 336.795,408.265 336.461,406.265 335.5,404.5C 335.38,394.812 335.713,385.146 336.5,375.5C 338.408,368.779 340.742,362.113 343.5,355.5C 344.401,354.71 345.068,353.71 345.5,352.5C 347.528,348.816 349.528,345.15 351.5,341.5C 355.203,337.798 358.537,333.798 361.5,329.5C 362.167,329.5 362.5,329.167 362.5,328.5C 367.175,324.831 371.842,321.164 376.5,317.5C 388.098,310.039 400.765,305.372 414.5,303.5 Z"/></g>
<g><path style="opacity:1" fill="#a7bcaf" d="M 447.5,305.5 C 445.585,305.784 443.919,305.451 442.5,304.5C 444.722,304.822 446.556,304.155 448,302.5C 448.47,303.577 448.303,304.577 447.5,305.5 Z"/></g>
<g><path style="opacity:1" fill="#43a478" d="M 465.5,311.5 C 464.833,311.167 464.167,310.833 463.5,310.5C 467.597,303.691 468.264,304.024 465.5,311.5 Z"/></g>
<g><path style="opacity:1" fill="#fcfcfc" d="M 411.5,321.5 C 452.57,317.76 480.403,335.093 495,373.5C 502.962,413.008 489.129,441.842 453.5,460C 411.489,472.739 379.989,459.906 359,421.5C 346.995,388.684 354.162,360.851 380.5,338C 389.763,330.37 400.096,324.87 411.5,321.5 Z"/></g>
<g><path style="opacity:1" fill="#2ba171" d="M 351.5,341.5 C 349.528,345.15 347.528,348.816 345.5,352.5C 336.954,342.454 327.287,333.621 316.5,326C 328.843,329.502 340.51,334.669 351.5,341.5 Z"/></g>
<g><path style="opacity:1" fill="#4daa7f" d="M 362.5,328.5 C 362.5,329.167 362.167,329.5 361.5,329.5C 357.666,326.244 358,325.91 362.5,328.5 Z"/></g>
<g><path style="opacity:1" fill="#30a273" d="M 507.5,353.5 C 505.992,351.819 504.992,349.819 504.5,347.5C 514.888,339.306 526.555,333.806 539.5,331C 528.123,337.553 517.456,345.053 507.5,353.5 Z"/></g>
<g><path style="opacity:1" fill="#2ca172" d="M 343.5,355.5 C 340.742,362.113 338.408,368.779 336.5,375.5C 322.405,371.047 308.072,367.547 293.5,365C 299.18,363.122 305.014,362.288 311,362.5C 319.27,363.265 327.437,364.432 335.5,366C 322.383,353.224 307.383,343.224 290.5,336C 309.819,337.992 327.485,344.492 343.5,355.5 Z"/></g>
<g><path style="opacity:1" fill="#585757" d="M 417.5,339.5 C 449.061,337.346 469.228,351.346 478,381.5C 481.503,426.663 460.67,448.163 415.5,446C 381.163,435.856 367.33,413.023 374,377.5C 381.915,357.072 396.415,344.405 417.5,339.5 Z"/></g>
<g><path style="opacity:1" fill="#2ba171" d="M 513.5,371.5 C 512.13,368.381 511.13,365.048 510.5,361.5C 523.731,353.479 538.064,348.979 553.5,348C 539.217,354.501 525.883,362.334 513.5,371.5 Z"/></g>
<g><path style="opacity:1" fill="#fbfbfa" d="M 433.5,384.5 C 442.167,385.167 450.833,385.833 459.5,386.5C 452.6,390.56 446.1,395.227 440,400.5C 441.626,408.225 443.793,415.891 446.5,423.5C 446.167,424.167 445.833,424.833 445.5,425.5C 439.068,420.232 432.234,415.565 425,411.5C 418.011,416.485 411.011,421.485 404,426.5C 406.162,418.17 408.662,409.837 411.5,401.5C 405.2,396.016 398.533,391.016 391.5,386.5C 400.167,385.833 408.833,385.167 417.5,384.5C 419.689,376.414 422.189,368.414 425,360.5C 428.721,368.161 431.554,376.161 433.5,384.5 Z"/></g>
<g><path style="opacity:1" fill="#28a070" d="M 515.5,390.5 C 515.681,387.603 515.348,384.77 514.5,382C 515.056,380.989 515.722,380.156 516.5,379.5C 528.973,376.549 541.306,377.049 553.5,381C 540.641,383.471 527.974,386.638 515.5,390.5 Z"/></g>
<g><path style="opacity:1" fill="#adadac" d="M 417.5,384.5 C 408.833,385.167 400.167,385.833 391.5,386.5C 390.957,386.44 390.624,386.107 390.5,385.5C 399.475,384.502 408.475,384.168 417.5,384.5 Z"/></g>
<g><path style="opacity:1" fill="#adacac" d="M 433.5,384.5 C 442.525,384.168 451.525,384.502 460.5,385.5C 460.376,386.107 460.043,386.44 459.5,386.5C 450.833,385.833 442.167,385.167 433.5,384.5 Z"/></g>
<g><path style="opacity:1" fill="#2ba171" d="M 514.5,400.5 C 524.678,400.621 534.678,401.954 544.5,404.5C 543.167,405.167 541.833,405.833 540.5,406.5C 531.747,406.844 523.081,407.844 514.5,409.5C 514.5,406.5 514.5,403.5 514.5,400.5 Z"/></g>
<g><path style="opacity:1" fill="#96c5a9" d="M 544.5,404.5 C 545.756,404.461 546.756,404.961 547.5,406C 545.19,406.497 542.857,406.663 540.5,406.5C 541.833,405.833 543.167,405.167 544.5,404.5 Z"/></g>
<g><path style="opacity:1" fill="#f5f5f5" d="M 336.5,410.5 C 338.118,413.171 338.785,416.171 338.5,419.5C 335.191,422.159 331.524,424.326 327.5,426C 331.91,426.317 336.243,425.817 340.5,424.5C 341.363,426.421 342.029,428.421 342.5,430.5C 330.817,438.678 318.484,445.845 305.5,452C 319.773,449.966 333.439,445.799 346.5,439.5C 348.522,441.531 350.189,443.865 351.5,446.5C 344.9,452.802 337.9,458.635 330.5,464C 339.954,462.11 348.621,458.276 356.5,452.5C 358.581,454.847 360.581,457.18 362.5,459.5C 356.664,474.499 349.83,488.832 342,502.5C 353.247,491.431 362.747,479.098 370.5,465.5C 372.795,466.475 374.795,467.808 376.5,469.5C 376.219,473.188 375.719,476.855 375,480.5C 372.96,487.276 370.96,493.943 369,500.5C 376.155,492.852 382.322,484.519 387.5,475.5C 390.579,476.304 393.579,477.304 396.5,478.5C 395.53,482.219 394.696,485.886 394,489.5C 396.717,486.29 399.217,482.956 401.5,479.5C 404.635,481.023 407.968,481.69 411.5,481.5C 412.369,483.717 412.702,486.05 412.5,488.5C 411.986,516.958 407.153,544.625 398,571.5C 392.014,588.139 382.181,601.973 368.5,613C 352.159,622.358 334.826,624.858 316.5,620.5C 289.359,650.989 262.026,651.156 234.5,621C 218.586,620.971 209.42,613.138 207,597.5C 206.667,593.5 206.333,589.5 206,585.5C 177.883,569.033 172.383,547.033 189.5,519.5C 178.044,497.163 182.377,478.663 202.5,464C 220.619,453.777 239.619,445.443 259.5,439C 287.053,434.319 312.72,424.819 336.5,410.5 Z"/></g>
<g><path style="opacity:1" fill="#32a173" d="M 338.5,419.5 C 339.537,420.93 340.204,422.597 340.5,424.5C 336.243,425.817 331.91,426.317 327.5,426C 331.524,424.326 335.191,422.159 338.5,419.5 Z"/></g>
<g><path style="opacity:1" fill="#2aa171" d="M 342.5,430.5 C 344.105,433.378 345.439,436.378 346.5,439.5C 333.439,445.799 319.773,449.966 305.5,452C 318.484,445.845 330.817,438.678 342.5,430.5 Z"/></g>
<g><path style="opacity:1" fill="#f5f5f5" d="M 503.5,442.5 C 515.043,445.626 526.376,449.459 537.5,454C 566.38,460.886 595.713,464.219 625.5,464C 649.809,465.985 664.309,478.819 669,502.5C 669.695,512.255 669.361,521.921 668,531.5C 695.779,560.037 693.613,586.037 661.5,609.5C 654.452,655.19 629.452,669.523 586.5,652.5C 556.865,687.24 525.865,688.407 493.5,656C 477.149,654.997 462.483,649.664 449.5,640C 444.169,635.002 440.003,629.169 437,622.5C 430.91,606.383 427.243,589.716 426,572.5C 425.667,552.5 425.333,532.5 425,512.5C 424.325,502.431 423.158,492.431 421.5,482.5C 422.833,482.5 424.167,482.5 425.5,482.5C 431.711,491.561 436.878,501.228 441,511.5C 441.667,509.167 441.667,506.833 441,504.5C 439.495,497.151 437.995,489.818 436.5,482.5C 438.607,481.532 440.941,481.198 443.5,481.5C 451.217,490.387 458.384,499.721 465,509.5C 462.598,499.016 458.764,489.016 453.5,479.5C 455.979,478.205 458.646,477.205 461.5,476.5C 469.615,483.078 477.615,489.912 485.5,497C 492.032,503.198 498.199,509.698 504,516.5C 502.446,510.724 499.779,505.391 496,500.5C 488.365,490.698 479.865,481.698 470.5,473.5C 471.659,471.75 473.326,470.75 475.5,470.5C 493.784,481.279 511.117,493.446 527.5,507C 528.167,507.667 528.833,507.667 529.5,507C 516.932,490.265 502.266,475.765 485.5,463.5C 487.239,460.757 489.573,458.757 492.5,457.5C 504.963,464.6 505.63,463.6 494.5,454.5C 497.512,450.462 500.512,446.462 503.5,442.5 Z"/></g>
<g><path style="opacity:1" fill="#33a273" d="M 351.5,446.5 C 353.137,448.475 354.804,450.475 356.5,452.5C 348.621,458.276 339.954,462.11 330.5,464C 337.9,458.635 344.9,452.802 351.5,446.5 Z"/></g>
<g><path style="opacity:1" fill="#4ba87d" d="M 494.5,454.5 C 505.63,463.6 504.963,464.6 492.5,457.5C 492.427,455.973 493.094,454.973 494.5,454.5 Z"/></g>
<g><path style="opacity:1" fill="#2ca171" d="M 362.5,459.5 C 365.455,461.122 368.122,463.122 370.5,465.5C 362.747,479.098 353.247,491.431 342,502.5C 349.83,488.832 356.664,474.499 362.5,459.5 Z"/></g>
<g><path style="opacity:1" fill="#2ca171" d="M 485.5,463.5 C 502.266,475.765 516.932,490.265 529.5,507C 528.833,507.667 528.167,507.667 527.5,507C 511.117,493.446 493.784,481.279 475.5,470.5C 478.796,468.179 482.129,465.846 485.5,463.5 Z"/></g>
<g><path style="opacity:1" fill="#31a273" d="M 376.5,469.5 C 380.335,471.25 384.001,473.25 387.5,475.5C 382.322,484.519 376.155,492.852 369,500.5C 370.96,493.943 372.96,487.276 375,480.5C 375.719,476.855 376.219,473.188 376.5,469.5 Z"/></g>
<g><path style="opacity:1" fill="#2aa171" d="M 470.5,473.5 C 479.865,481.698 488.365,490.698 496,500.5C 499.779,505.391 502.446,510.724 504,516.5C 498.199,509.698 492.032,503.198 485.5,497C 477.615,489.912 469.615,483.078 461.5,476.5C 464.426,475.302 467.426,474.302 470.5,473.5 Z"/></g>
<g><path style="opacity:1" fill="#3da477" d="M 396.5,478.5 C 398.117,479.038 399.784,479.371 401.5,479.5C 399.217,482.956 396.717,486.29 394,489.5C 394.696,485.886 395.53,482.219 396.5,478.5 Z"/></g>
<g><path style="opacity:1" fill="#34a274" d="M 453.5,479.5 C 458.764,489.016 462.598,499.016 465,509.5C 458.384,499.721 451.217,490.387 443.5,481.5C 446.761,480.622 450.094,479.956 453.5,479.5 Z"/></g>
<g><path style="opacity:1" fill="#2ea272" d="M 425.5,482.5 C 429.167,482.5 432.833,482.5 436.5,482.5C 437.995,489.818 439.495,497.151 441,504.5C 441.667,506.833 441.667,509.167 441,511.5C 436.878,501.228 431.711,491.561 425.5,482.5 Z"/></g>
<g><path style="opacity:1" fill="#b0cdba" d="M 411.5,481.5 C 412.492,481.328 413.158,481.662 413.5,482.5C 413.795,484.735 413.461,486.735 412.5,488.5C 412.702,486.05 412.369,483.717 411.5,481.5 Z"/></g>
</svg>
