<?xml version="1.0" encoding="UTF-8"?>
<!DOCTYPE svg PUBLIC "-//W3C//DTD SVG 1.1//EN" "http://www.w3.org/Graphics/SVG/1.1/DTD/svg11.dtd">
<svg xmlns="http://www.w3.org/2000/svg" version="1.1" width="2273px" height="1565px" style="shape-rendering:geometricPrecision; text-rendering:geometricPrecision; image-rendering:optimizeQuality; fill-rule:evenodd; clip-rule:evenodd" xmlns:xlink="http://www.w3.org/1999/xlink">
<g><path style="opacity:0.956" fill="#000000" d="M 1198.5,-0.5 C 1199.5,-0.5 1200.5,-0.5 1201.5,-0.5C 1413.61,54.6108 1625.94,109.277 1838.5,163.5C 1853.17,168.253 1868.17,172.253 1883.5,175.5C 2010.54,207.676 2137.54,240.009 2264.5,272.5C 2263.32,278.89 2261.82,285.223 2260,291.5C 2259.33,292.578 2258.33,293.245 2257,293.5C 2132.4,261.726 2007.9,229.726 1883.5,197.5C 1868.67,193.201 1853.67,189.534 1838.5,186.5C 1623.95,131.03 1409.29,75.863 1194.5,21C 1194.29,13.6572 1195.62,6.49051 1198.5,-0.5 Z"/></g>
<g><path style="opacity:1" fill="#375622" d="M 1883.5,175.5 C 1868.17,172.253 1853.17,168.253 1838.5,163.5C 1838.5,124.833 1838.5,86.1667 1838.5,47.5C 1853.5,47.5 1868.5,47.5 1883.5,47.5C 1883.5,90.1667 1883.5,132.833 1883.5,175.5 Z"/></g>
<g><path style="opacity:0.956" fill="#000000" d="M 1838.5,229.5 C 1838.61,230.117 1838.94,230.617 1839.5,231C 1854.34,235.213 1869,238.713 1883.5,241.5C 2009.78,274.037 2136.11,306.37 2262.5,338.5C 2261.32,344.89 2259.82,351.223 2258,357.5C 2257.33,358.578 2256.33,359.245 2255,359.5C 2131.17,327.751 2007.34,296.085 1883.5,264.5C 1868.82,259.756 1853.82,255.756 1838.5,252.5C 1623.19,197.338 1407.85,142.171 1192.5,87C 1191.92,86.1074 1191.59,85.1074 1191.5,84C 1192.77,78.105 1194.27,72.2716 1196,66.5C 1196.56,65.9781 1197.23,65.6448 1198,65.5C 1411.38,120.719 1624.88,175.386 1838.5,229.5 Z"/></g>
<g><path style="opacity:0.932" fill="#040404" d="M 1838.5,298.5 C 1853.17,303.253 1868.17,307.253 1883.5,310.5C 2009.17,342.5 2134.83,374.5 2260.5,406.5C 2259.32,412.89 2257.82,419.223 2256,425.5C 2255.33,426.578 2254.33,427.245 2253,427.5C 2159.19,403.423 2065.36,379.423 1971.5,355.5C 1970.83,355.833 1970.17,356.167 1969.5,356.5C 1972.77,362.712 1975.77,369.046 1978.5,375.5C 1974.55,376.491 1970.55,376.824 1966.5,376.5C 1966.82,646.509 1966.49,916.509 1965.5,1186.5C 2019.28,1198.86 2072.95,1211.7 2126.5,1225C 2009.55,1253.12 1892.55,1281.12 1775.5,1309C 1894.57,1336.98 2013.57,1365.15 2132.5,1393.5C 2016.35,1421.6 1900.01,1448.93 1783.5,1475.5C 1783.5,1476.5 1783.5,1477.5 1783.5,1478.5C 1661.24,1506.57 1539.24,1535.23 1417.5,1564.5C 1417.17,1564.5 1416.83,1564.5 1416.5,1564.5C 1301.44,1537.12 1186.27,1509.78 1071,1482.5C 981.63,1503.68 892.297,1525.01 803,1546.5C 565.154,1490.58 327.321,1434.41 89.5,1378C 86.8333,1377.33 86.8333,1376.67 89.5,1376C 179.797,1354.51 270.13,1333.18 360.5,1312C 240.5,1283.5 120.5,1255 0.5,1226.5C 201.058,1179.44 401.391,1131.61 601.5,1083C 421.904,1029.19 242.238,975.69 62.5,922.5C 61.9546,926.471 60.6213,930.138 58.5,933.5C 50.5344,927.202 43.2011,920.202 36.5,912.5C 46.8641,909.827 57.1974,908.16 67.5,907.5C 66.4608,911.452 65.1275,915.285 63.5,919C 245.127,973.323 426.794,1027.49 608.5,1081.5C 757.975,1045.4 907.641,1010.07 1057.5,975.5C 1171.93,1001.86 1286.26,1028.69 1400.5,1056C 1405.48,1055.67 1410.48,1055.67 1415.5,1056C 1556.7,1089.05 1697.7,1122.55 1838.5,1156.5C 1838.5,1158.17 1838.5,1159.83 1838.5,1161.5C 1812.3,1155.74 1786.13,1149.74 1760,1143.5C 1645.07,1170.27 1530.24,1197.44 1415.5,1225C 1484.1,1241.65 1552.76,1257.98 1621.5,1274C 1625.47,1275 1629.47,1275.33 1633.5,1275C 1640.5,1269.17 1647.5,1263.33 1654.5,1257.5C 1656.28,1260.95 1657.28,1264.61 1657.5,1268.5C 1659.9,1268.55 1662.24,1268.22 1664.5,1267.5C 1666.1,1267.23 1667.43,1267.57 1668.5,1268.5C 1664.98,1268.88 1661.64,1269.88 1658.5,1271.5C 1659.52,1275.52 1660.52,1279.52 1661.5,1283.5C 1694.32,1291.22 1727.15,1298.89 1760,1306.5C 1874.5,1279.25 1989,1252.08 2103.5,1225C 2057.63,1213.65 2011.63,1202.82 1965.5,1192.5C 1965.5,1195.83 1965.5,1199.17 1965.5,1202.5C 1969.5,1203.17 1973.5,1203.83 1977.5,1204.5C 1973.43,1212.96 1969.1,1221.3 1964.5,1229.5C 1959.9,1221.3 1955.57,1212.96 1951.5,1204.5C 1955.5,1203.83 1959.5,1203.17 1963.5,1202.5C 1964.04,1198.33 1963.38,1194.49 1961.5,1191C 1935.48,1184.83 1909.48,1178.66 1883.5,1172.5C 1883.5,1170.83 1883.5,1169.17 1883.5,1167.5C 1910.17,1173.5 1936.83,1179.5 1963.5,1185.5C 1963.5,915.833 1963.5,646.167 1963.5,376.5C 1959.12,376.826 1954.78,376.492 1950.5,375.5C 1954.17,368.167 1957.83,360.833 1961.5,353.5C 1935.58,346.187 1909.58,339.187 1883.5,332.5C 1868.71,328.052 1853.71,324.386 1838.5,321.5C 1622.62,265.709 1406.62,210.209 1190.5,155C 1189.92,154.107 1189.59,153.107 1189.5,152C 1190.77,146.105 1192.27,140.272 1194,134.5C 1194.56,133.978 1195.23,133.645 1196,133.5C 1410.12,188.738 1624.29,243.738 1838.5,298.5 Z M 419.5,963.5 C 425.882,963.215 428.882,966.215 428.5,972.5C 423.833,972.5 419.167,972.5 414.5,972.5C 414.372,968.415 416.039,965.415 419.5,963.5 Z"/></g>
<g><path style="opacity:1" fill="#375622" d="M 1838.5,186.5 C 1853.67,189.534 1868.67,193.201 1883.5,197.5C 1883.5,212.167 1883.5,226.833 1883.5,241.5C 1869,238.713 1854.34,235.213 1839.5,231C 1838.94,230.617 1838.61,230.117 1838.5,229.5C 1838.5,215.167 1838.5,200.833 1838.5,186.5 Z"/></g>
<g><path style="opacity:1" fill="#375622" d="M 1838.5,252.5 C 1853.82,255.756 1868.82,259.756 1883.5,264.5C 1883.5,279.833 1883.5,295.167 1883.5,310.5C 1868.17,307.253 1853.17,303.253 1838.5,298.5C 1838.5,283.167 1838.5,267.833 1838.5,252.5 Z"/></g>
<g><path style="opacity:1" fill="#375622" d="M 1838.5,321.5 C 1853.71,324.386 1868.71,328.052 1883.5,332.5C 1883.5,610.833 1883.5,889.167 1883.5,1167.5C 1883.5,1169.17 1883.5,1170.83 1883.5,1172.5C 1883.5,1192.5 1883.5,1212.5 1883.5,1232.5C 1868.5,1232.5 1853.5,1232.5 1838.5,1232.5C 1838.5,1230.17 1838.5,1227.83 1838.5,1225.5C 1838.95,1224.54 1839.62,1223.71 1840.5,1223C 1839.26,1222.77 1838.26,1222.27 1837.5,1221.5C 1838.5,1201.67 1838.83,1181.67 1838.5,1161.5C 1838.5,1159.83 1838.5,1158.17 1838.5,1156.5C 1838.5,878.167 1838.5,599.833 1838.5,321.5 Z"/></g>
<g><path style="opacity:0.934" fill="#000000" d="M 2016.5,734.5 C 2019.78,734.216 2022.94,734.549 2026,735.5C 2026.67,753.5 2026.67,771.5 2026,789.5C 2023.26,790.61 2020.43,790.777 2017.5,790C 2016.81,788.933 2016.31,787.766 2016,786.5C 2008.33,793.167 2000.67,793.167 1993,786.5C 1988.38,776.514 1988.38,766.514 1993,756.5C 1997.58,750.945 2003.41,749.112 2010.5,751C 2012.29,751.785 2013.79,752.951 2015,754.5C 2015.2,747.754 2015.7,741.087 2016.5,734.5 Z M 2005.5,759.5 C 2012.61,760.107 2015.94,763.941 2015.5,771C 2016.15,777.355 2013.32,781.188 2007,782.5C 2002.15,780.321 1999.99,776.487 2000.5,771C 2000.17,766.169 2001.84,762.336 2005.5,759.5 Z"/></g>
<g><path style="opacity:0.942" fill="#000000" d="M 416.5,956.5 C 432.972,954.971 440.305,962.305 438.5,978.5C 430.528,979.498 422.528,979.831 414.5,979.5C 414.151,986.352 417.485,989.685 424.5,989.5C 428.803,988.572 433.136,987.906 437.5,987.5C 437.813,990.247 437.48,992.914 436.5,995.5C 427.752,998.327 419.085,998.161 410.5,995C 407.131,992.635 404.964,989.468 404,985.5C 402.27,976.811 403.77,968.811 408.5,961.5C 410.928,959.295 413.595,957.628 416.5,956.5 Z M 419.5,963.5 C 416.039,965.415 414.372,968.415 414.5,972.5C 419.167,972.5 423.833,972.5 428.5,972.5C 428.882,966.215 425.882,963.215 419.5,963.5 Z"/></g>
<g><path style="opacity:1" fill="#aeaaaa" d="M 1054.5,980.5 C 1170,1006.92 1285.33,1034.08 1400.5,1062C 1289.93,1088.64 1179.26,1114.98 1068.5,1141C 1063.46,1141.55 1058.46,1141.22 1053.5,1140C 942.174,1113.67 830.841,1087.34 719.5,1061C 831.185,1033.99 942.852,1007.16 1054.5,980.5 Z"/></g>
<g><path style="opacity:1" fill="#aeaaaa" d="M 1414.5,1063.5 C 1421.31,1063.23 1427.98,1064.06 1434.5,1066C 1539.46,1090.99 1644.46,1115.82 1749.5,1140.5C 1635.37,1167.57 1521.2,1194.57 1407,1221.5C 1296.73,1196.06 1186.57,1170.23 1076.5,1144C 1189.37,1117.45 1302.03,1090.61 1414.5,1063.5 Z"/></g>
<g><path style="opacity:1" fill="#ada9a9" d="M 919.5,1176.5 C 918.833,1176.17 918.167,1175.83 917.5,1175.5C 910.53,1168.7 903.364,1162.03 896,1155.5C 894.395,1158.65 893.395,1161.98 893,1165.5C 892.583,1166.76 891.75,1167.42 890.5,1167.5C 800.977,1140.33 711.31,1113.33 621.5,1086.5C 620.244,1086.54 619.244,1086.04 618.5,1085C 648.651,1077.75 678.818,1070.59 709,1063.5C 823.626,1090.19 938.126,1117.35 1052.5,1145C 1008.22,1155.71 963.885,1166.21 919.5,1176.5 Z"/></g>
<g><path style="opacity:1" fill="#aeaaaa" d="M 620.5,1087.5 C 709.973,1114.71 799.64,1141.71 889.5,1168.5C 890.497,1168.47 891.164,1168.97 891.5,1170C 890.156,1173.81 889.322,1177.64 889,1181.5C 892.364,1180.26 895.864,1179.59 899.5,1179.5C 899.5,1180.17 899.5,1180.83 899.5,1181.5C 840.399,1195.73 781.233,1209.73 722,1223.5C 607.322,1197.08 492.822,1170.08 378.5,1142.5C 452.411,1124.35 526.411,1106.51 600.5,1089C 607.068,1086.68 613.735,1086.18 620.5,1087.5 Z"/></g>
<g><path style="opacity:1" fill="#1c1c1c" d="M 621.5,1086.5 C 711.31,1113.33 800.977,1140.33 890.5,1167.5C 889.833,1167.5 889.5,1167.83 889.5,1168.5C 799.64,1141.71 709.973,1114.71 620.5,1087.5C 621.167,1087.5 621.5,1087.17 621.5,1086.5 Z"/></g>
<g><path style="opacity:1" fill="#aeaaaa" d="M 1838.5,1161.5 C 1838.83,1181.67 1838.5,1201.67 1837.5,1221.5C 1829.38,1220.47 1821.38,1218.8 1813.5,1216.5C 1812.83,1216.83 1812.17,1217.17 1811.5,1217.5C 1812.57,1221.01 1813.57,1224.51 1814.5,1228C 1811.8,1228.84 1809.13,1229.67 1806.5,1230.5C 1759.08,1242.86 1711.74,1255.19 1664.5,1267.5C 1662.24,1268.22 1659.9,1268.55 1657.5,1268.5C 1657.28,1264.61 1656.28,1260.95 1654.5,1257.5C 1647.5,1263.33 1640.5,1269.17 1633.5,1275C 1629.47,1275.33 1625.47,1275 1621.5,1274C 1552.76,1257.98 1484.1,1241.65 1415.5,1225C 1530.24,1197.44 1645.07,1170.27 1760,1143.5C 1786.13,1149.74 1812.3,1155.74 1838.5,1161.5 Z"/></g>
<g><path style="opacity:1" fill="#aeaaaa" d="M 364.5,1145.5 C 479.93,1172.09 595.264,1199.09 710.5,1226.5C 596.851,1253.33 483.185,1280.16 369.5,1307C 366.134,1307.33 362.801,1307 359.5,1306C 247.691,1279.96 136.024,1253.46 24.5,1226.5C 137.853,1199.16 251.186,1172.16 364.5,1145.5 Z"/></g>
<g><path style="opacity:1" fill="#7e5f00" d="M 1299.5,1201.5 C 1299.5,1206.83 1299.5,1212.17 1299.5,1217.5C 1298.5,1217.5 1297.5,1217.5 1296.5,1217.5C 1295.83,1217.5 1295.17,1217.5 1294.5,1217.5C 1251.55,1207.01 1208.55,1196.35 1165.5,1185.5C 1150.17,1181.83 1134.83,1178.17 1119.5,1174.5C 1119.79,1170.49 1120.79,1166.65 1122.5,1163C 1122.17,1162.5 1121.83,1162 1121.5,1161.5C 1112.22,1164.05 1102.89,1166.38 1093.5,1168.5C 1100.22,1175.55 1107.55,1181.88 1115.5,1187.5C 1116.52,1184.56 1117.36,1181.56 1118,1178.5C 1118.67,1177.42 1119.67,1176.75 1121,1176.5C 1134.83,1179.92 1148.66,1183.25 1162.5,1186.5C 1205.28,1197.61 1248.28,1208.28 1291.5,1218.5C 1294.24,1218.85 1296.9,1219.52 1299.5,1220.5C 1300.5,1232.48 1300.83,1244.48 1300.5,1256.5C 1302.86,1256.66 1305.19,1256.5 1307.5,1256C 1308.23,1254.6 1308.73,1253.1 1309,1251.5C 1314.87,1258.01 1321.71,1259.17 1329.5,1255C 1335.5,1247.82 1337.5,1239.66 1335.5,1230.5C 1337.4,1229.77 1339.4,1229.77 1341.5,1230.5C 1442.73,1255.47 1544.06,1280.47 1645.5,1305.5C 1649.1,1306.2 1652.6,1307.2 1656,1308.5C 1656.54,1311.81 1656.04,1314.98 1654.5,1318C 1654.83,1318.83 1655.17,1319.67 1655.5,1320.5C 1664.76,1317.91 1674.1,1315.58 1683.5,1313.5C 1676.09,1307.05 1668.59,1300.71 1661,1294.5C 1659.78,1298.28 1658.62,1302.11 1657.5,1306C 1654.3,1305.23 1650.97,1304.73 1647.5,1304.5C 1546.65,1279.37 1445.65,1254.37 1344.5,1229.5C 1337.9,1229.79 1333.74,1226.79 1332,1220.5C 1324.73,1214.94 1317.73,1215.27 1311,1221.5C 1310.5,1215.84 1310.33,1210.18 1310.5,1204.5C 1456.42,1239.49 1602.42,1274.49 1748.5,1309.5C 1711.35,1319.62 1674.02,1329.12 1636.5,1338C 1558.03,1356.08 1479.69,1374.58 1401.5,1393.5C 1401.71,1394.09 1402.04,1394.59 1402.5,1395C 1319.46,1414.18 1236.46,1433.51 1153.5,1453C 1145.67,1453.46 1138.01,1452.46 1130.5,1450C 912.086,1398.7 693.752,1347.04 475.5,1295C 474.5,1294.67 473.5,1294.33 472.5,1294C 668.478,1242.51 865.145,1193.84 1062.5,1148C 1065.83,1147.33 1069.17,1147.33 1072.5,1148C 1148.18,1165.83 1223.85,1183.67 1299.5,1201.5 Z"/></g>
<g><path style="opacity:1" fill="#050300" d="M 1038.5,1174.5 C 1037.21,1174.74 1036.21,1174.4 1035.5,1173.5C 1043.48,1171.18 1051.48,1168.85 1059.5,1166.5C 1060,1162.78 1059.33,1159.11 1057.5,1155.5C 1067.09,1156.58 1076.76,1158.42 1086.5,1161C 1079.33,1167.5 1072.17,1174 1065,1180.5C 1063.8,1176.35 1062.3,1172.35 1060.5,1168.5C 1053.15,1170.5 1045.82,1172.5 1038.5,1174.5 Z"/></g>
<g><path style="opacity:1" fill="#050505" d="M 917.5,1175.5 C 911.653,1177.13 905.653,1178.46 899.5,1179.5C 895.864,1179.59 892.364,1180.26 889,1181.5C 889.322,1177.64 890.156,1173.81 891.5,1170C 891.164,1168.97 890.497,1168.47 889.5,1168.5C 889.5,1167.83 889.833,1167.5 890.5,1167.5C 891.75,1167.42 892.583,1166.76 893,1165.5C 893.395,1161.98 894.395,1158.65 896,1155.5C 903.364,1162.03 910.53,1168.7 917.5,1175.5 Z"/></g>
<g><path style="opacity:1" fill="#060400" d="M 1165.5,1185.5 C 1164.79,1186.4 1163.79,1186.74 1162.5,1186.5C 1148.66,1183.25 1134.83,1179.92 1121,1176.5C 1119.67,1176.75 1118.67,1177.42 1118,1178.5C 1117.36,1181.56 1116.52,1184.56 1115.5,1187.5C 1107.55,1181.88 1100.22,1175.55 1093.5,1168.5C 1102.89,1166.38 1112.22,1164.05 1121.5,1161.5C 1121.83,1162 1122.17,1162.5 1122.5,1163C 1120.79,1166.65 1119.79,1170.49 1119.5,1174.5C 1134.83,1178.17 1150.17,1181.83 1165.5,1185.5 Z"/></g>
<g><path style="opacity:1" fill="#ada9a9" d="M 1883.5,1172.5 C 1909.48,1178.66 1935.48,1184.83 1961.5,1191C 1963.38,1194.49 1964.04,1198.33 1963.5,1202.5C 1959.12,1202.17 1954.78,1202.51 1950.5,1203.5C 1950.62,1204.11 1950.96,1204.44 1951.5,1204.5C 1955.57,1212.96 1959.9,1221.3 1964.5,1229.5C 1969.1,1221.3 1973.43,1212.96 1977.5,1204.5C 1978.04,1204.44 1978.38,1204.11 1978.5,1203.5C 1974.22,1202.51 1969.88,1202.17 1965.5,1202.5C 1965.5,1199.17 1965.5,1195.83 1965.5,1192.5C 2011.63,1202.82 2057.63,1213.65 2103.5,1225C 1989,1252.08 1874.5,1279.25 1760,1306.5C 1727.15,1298.89 1694.32,1291.22 1661.5,1283.5C 1660.52,1279.52 1659.52,1275.52 1658.5,1271.5C 1661.64,1269.88 1664.98,1268.88 1668.5,1268.5C 1715.62,1256.28 1762.62,1243.95 1809.5,1231.5C 1811.44,1230.85 1813.44,1230.52 1815.5,1230.5C 1816.03,1234.29 1817.03,1237.96 1818.5,1241.5C 1825.2,1236.16 1831.86,1230.82 1838.5,1225.5C 1838.5,1227.83 1838.5,1230.17 1838.5,1232.5C 1853.5,1232.5 1868.5,1232.5 1883.5,1232.5C 1883.5,1212.5 1883.5,1192.5 1883.5,1172.5 Z"/></g>
<g><path style="opacity:1" fill="#838080" d="M 917.5,1175.5 C 918.167,1175.83 918.833,1176.17 919.5,1176.5C 913.02,1178.45 906.354,1180.12 899.5,1181.5C 899.5,1180.83 899.5,1180.17 899.5,1179.5C 905.653,1178.46 911.653,1177.13 917.5,1175.5 Z"/></g>
<g><path style="opacity:1" fill="#120d00" d="M 1165.5,1185.5 C 1208.55,1196.35 1251.55,1207.01 1294.5,1217.5C 1293.21,1217.26 1292.21,1217.6 1291.5,1218.5C 1248.28,1208.28 1205.28,1197.61 1162.5,1186.5C 1163.79,1186.74 1164.79,1186.4 1165.5,1185.5 Z"/></g>
<g><path style="opacity:1" fill="#433300" d="M 1299.5,1201.5 C 1300.49,1206.98 1300.82,1212.64 1300.5,1218.5C 1298.9,1218.77 1297.57,1218.43 1296.5,1217.5C 1297.5,1217.5 1298.5,1217.5 1299.5,1217.5C 1299.5,1212.17 1299.5,1206.83 1299.5,1201.5 Z"/></g>
<g><path style="opacity:1" fill="#5b5959" d="M 1963.5,1202.5 C 1959.5,1203.17 1955.5,1203.83 1951.5,1204.5C 1950.96,1204.44 1950.62,1204.11 1950.5,1203.5C 1954.78,1202.51 1959.12,1202.17 1963.5,1202.5 Z"/></g>
<g><path style="opacity:1" fill="#5b5959" d="M 1965.5,1202.5 C 1969.88,1202.17 1974.22,1202.51 1978.5,1203.5C 1978.38,1204.11 1978.04,1204.44 1977.5,1204.5C 1973.5,1203.83 1969.5,1203.17 1965.5,1202.5 Z"/></g>
<g><path style="opacity:1" fill="#171100" d="M 1035.5,1173.5 C 1036.21,1174.4 1037.21,1174.74 1038.5,1174.5C 981.965,1189.8 925.298,1205.14 868.5,1220.5C 867.791,1219.6 866.791,1219.26 865.5,1219.5C 922.048,1204.19 978.714,1188.86 1035.5,1173.5 Z"/></g>
<g><path style="opacity:1" fill="#040300" d="M 865.5,1219.5 C 866.791,1219.26 867.791,1219.6 868.5,1220.5C 863.965,1222.01 859.299,1223.01 854.5,1223.5C 854.666,1232.51 854.5,1241.51 854,1250.5C 851.619,1251.44 849.119,1251.77 846.5,1251.5C 846.657,1250.13 846.49,1248.79 846,1247.5C 839.124,1253.34 831.957,1253.84 824.5,1249C 820.5,1243.67 820.5,1238.33 824.5,1233C 823.552,1232.52 822.552,1232.35 821.5,1232.5C 820.833,1232.5 820.5,1232.17 820.5,1231.5C 825.967,1229.41 831.633,1228.07 837.5,1227.5C 840.135,1228.73 842.801,1228.73 845.5,1227.5C 844.398,1226.82 843.398,1226.16 842.5,1225.5C 844.225,1225.16 844.725,1224.16 844,1222.5C 843.228,1221.15 842.061,1220.32 840.5,1220C 834.93,1219.43 829.597,1220.1 824.5,1222C 822.099,1216.77 823.765,1213.77 829.5,1213C 837.184,1210.43 844.518,1211.09 851.5,1215C 852.539,1217.95 854.372,1220.12 857,1221.5C 859.87,1220.91 862.703,1220.24 865.5,1219.5 Z"/></g>
<g><path style="opacity:1" fill="#060505" d="M 1837.5,1221.5 C 1838.26,1222.27 1839.26,1222.77 1840.5,1223C 1839.62,1223.71 1838.95,1224.54 1838.5,1225.5C 1831.86,1230.82 1825.2,1236.16 1818.5,1241.5C 1817.03,1237.96 1816.03,1234.29 1815.5,1230.5C 1813.44,1230.52 1811.44,1230.85 1809.5,1231.5C 1808.21,1231.74 1807.21,1231.4 1806.5,1230.5C 1809.13,1229.67 1811.8,1228.84 1814.5,1228C 1813.57,1224.51 1812.57,1221.01 1811.5,1217.5C 1812.17,1217.17 1812.83,1216.83 1813.5,1216.5C 1821.38,1218.8 1829.38,1220.47 1837.5,1221.5 Z"/></g>
<g><path style="opacity:1" fill="#7c5e00" d="M 1315.5,1225.5 C 1323.23,1225.57 1326.9,1229.57 1326.5,1237.5C 1324.8,1249.51 1319.64,1251.51 1311,1243.5C 1310.33,1239.17 1310.33,1234.83 1311,1230.5C 1312.71,1228.96 1314.21,1227.3 1315.5,1225.5 Z"/></g>
<g><path style="opacity:1" fill="#281f04" d="M 842.5,1225.5 C 843.398,1226.16 844.398,1226.82 845.5,1227.5C 842.801,1228.73 840.135,1228.73 837.5,1227.5C 838.78,1226.07 840.447,1225.4 842.5,1225.5 Z"/></g>
<g><path style="opacity:1" fill="#7a5c00" d="M 835.5,1234.5 C 838.5,1234.5 841.5,1234.5 844.5,1234.5C 845.157,1242.85 841.491,1246.18 833.5,1244.5C 830.462,1240.36 831.129,1237.02 835.5,1234.5 Z"/></g>
<g><path style="opacity:1" fill="#1f1e1e" d="M 1806.5,1230.5 C 1807.21,1231.4 1808.21,1231.74 1809.5,1231.5C 1762.62,1243.95 1715.62,1256.28 1668.5,1268.5C 1667.43,1267.57 1666.1,1267.23 1664.5,1267.5C 1711.74,1255.19 1759.08,1242.86 1806.5,1230.5 Z"/></g>
<g><path style="opacity:1" fill="#040404" d="M 1777.5,1247.5 C 1783.23,1246.89 1788.4,1248.22 1793,1251.5C 1794.79,1259.86 1792.62,1261.36 1786.5,1256C 1780.5,1254.33 1776.67,1256.49 1775,1262.5C 1773.35,1268.96 1774.85,1274.46 1779.5,1279C 1784.34,1279.77 1788.68,1278.61 1792.5,1275.5C 1793.65,1278.45 1793.82,1281.45 1793,1284.5C 1784.16,1290.37 1775.82,1289.7 1768,1282.5C 1764.21,1274.78 1763.54,1266.78 1766,1258.5C 1768.44,1253.23 1772.27,1249.56 1777.5,1247.5 Z"/></g>
<g><path style="opacity:1" fill="#130e00" d="M 1344.5,1229.5 C 1445.65,1254.37 1546.65,1279.37 1647.5,1304.5C 1646.51,1304.33 1645.84,1304.66 1645.5,1305.5C 1544.06,1280.47 1442.73,1255.47 1341.5,1230.5C 1342.79,1230.74 1343.79,1230.4 1344.5,1229.5 Z"/></g>
<g><path style="opacity:1" fill="#181100" d="M 820.5,1231.5 C 820.5,1232.17 820.833,1232.5 821.5,1232.5C 750.822,1252.58 679.822,1271.91 608.5,1290.5C 608.5,1289.83 608.167,1289.5 607.5,1289.5C 678.191,1269.42 749.191,1250.09 820.5,1231.5 Z"/></g>
<g><path style="opacity:1" fill="#070400" d="M 607.5,1289.5 C 608.167,1289.5 608.5,1289.83 608.5,1290.5C 605.76,1290.76 603.426,1291.76 601.5,1293.5C 602.97,1297.05 603.97,1300.72 604.5,1304.5C 594.578,1303.18 584.911,1301.02 575.5,1298C 582.667,1291.5 589.833,1285 597,1278.5C 598.479,1282.38 599.645,1286.38 600.5,1290.5C 602.806,1290.01 605.139,1289.67 607.5,1289.5 Z"/></g>
<g><path style="opacity:1" fill="#050300" d="M 1645.5,1305.5 C 1645.84,1304.66 1646.51,1304.33 1647.5,1304.5C 1650.97,1304.73 1654.3,1305.23 1657.5,1306C 1658.62,1302.11 1659.78,1298.28 1661,1294.5C 1668.59,1300.71 1676.09,1307.05 1683.5,1313.5C 1674.1,1315.58 1664.76,1317.91 1655.5,1320.5C 1655.17,1319.67 1654.83,1318.83 1654.5,1318C 1656.04,1314.98 1656.54,1311.81 1656,1308.5C 1652.6,1307.2 1649.1,1306.2 1645.5,1305.5 Z"/></g>
<g><path style="opacity:1" fill="#aeaaaa" d="M 450.5,1295.5 C 563.812,1321.99 677.145,1348.49 790.5,1375C 675.7,1402.24 560.867,1429.41 446,1456.5C 333.734,1430.39 221.567,1403.89 109.5,1377C 223.309,1349.96 336.976,1322.8 450.5,1295.5 Z"/></g>
<g><path style="opacity:1" fill="#aeaaaa" d="M 1763.5,1312.5 C 1878.93,1339.09 1994.26,1366.09 2109.5,1393.5C 1996.93,1420.32 1884.26,1446.82 1771.5,1473C 1767.47,1473.33 1763.47,1473 1759.5,1472C 1647.56,1445.46 1535.56,1419.13 1423.5,1393C 1536.97,1366.13 1650.3,1339.3 1763.5,1312.5 Z"/></g>
<g><path style="opacity:1" fill="#aeaaaa" d="M 800.5,1377.5 C 912.666,1403.28 1024.67,1429.78 1136.5,1457C 1108.15,1463.84 1079.82,1470.67 1051.5,1477.5C 1053.77,1478.49 1056.11,1479.32 1058.5,1480C 973.393,1500.4 888.226,1520.57 803,1540.5C 688.071,1513.73 573.238,1486.56 458.5,1459C 572.628,1431.8 686.628,1404.63 800.5,1377.5 Z"/></g>
<g><path style="opacity:1" fill="#aeaaaa" d="M 1414.5,1396.5 C 1529.93,1423.09 1645.26,1450.09 1760.5,1477.5C 1646.85,1504.33 1533.18,1531.16 1419.5,1558C 1416.13,1558.33 1412.8,1558 1409.5,1557C 1297.41,1530.81 1185.41,1504.31 1073.5,1477.5C 1187.24,1450.31 1300.91,1423.31 1414.5,1396.5 Z"/></g>
</svg>
